<?xml version="1.0" standalone="no"?>
<!DOCTYPE svg PUBLIC "-//W3C//DTD SVG 20010904//EN"
 "http://www.w3.org/TR/2001/REC-SVG-20010904/DTD/svg10.dtd">
<svg version="1.0" xmlns="http://www.w3.org/2000/svg"
 width="500.000000pt" height="500.000000pt" viewBox="0 0 500.000000 500.000000"
 preserveAspectRatio="xMidYMid meet">

<g transform="translate(0.000000,500.000000) scale(0.100000,-0.100000)"
fill="#000000" stroke="none">
<path d="M2180 4685 c-357 -53 -768 -235 -1055 -466 -106 -86 -275 -256 -355
-357 -280 -356 -456 -841 -477 -1312 -12 -270 38 -530 165 -870 145 -388 456
-772 828 -1022 49 -32 157 -92 239 -133 219 -107 378 -159 645 -211 107 -20
374 -29 503 -15 375 38 748 172 1063 382 216 144 454 392 627 654 78 118 197
363 241 495 70 209 113 513 102 715 -27 499 -175 913 -469 1315 -139 190 -394
419 -609 548 -236 142 -529 238 -848 278 -140 17 -481 17 -600 -1z m6 -316
c-32 -5 -61 -11 -63 -13 -6 -6 115 1 170 9 37 6 51 4 65 -8 11 -11 22 -13 32
-7 9 5 19 5 26 -1 8 -7 14 -6 19 1 7 12 45 14 45 2 0 -4 17 -9 37 -10 20 -2
43 -8 50 -13 7 -6 18 -9 25 -7 15 5 54 -41 50 -59 -2 -8 8 -13 25 -13 21 0 31
-7 41 -27 14 -32 16 -46 3 -39 -5 3 -8 -7 -8 -22 0 -15 2 -21 4 -14 4 10 8 10
20 1 11 -9 16 -10 22 -1 4 7 12 8 21 2 8 -5 11 -12 8 -16 -4 -4 -1 -16 7 -28
20 -28 19 -36 -5 -36 -11 0 -20 -4 -20 -10 0 -5 -7 -10 -15 -10 -8 0 -15 -5
-15 -10 0 -7 6 -7 18 -1 23 12 37 3 46 -31 5 -21 3 -28 -9 -28 -8 0 -15 -7
-15 -15 0 -16 1 -16 36 -20 30 -3 44 -14 38 -28 -3 -10 -18 -11 -57 -6 -30 4
-57 2 -64 -3 -9 -7 -15 -5 -19 6 -3 9 -12 16 -18 16 -7 0 -23 12 -37 26 -13
14 -32 30 -42 36 -17 8 -18 7 -12 -14 l6 -23 -21 24 c-12 14 -17 27 -11 30 6
4 6 12 1 21 -5 8 -12 11 -16 7 -4 -4 -14 -2 -21 5 -11 9 -16 9 -23 -2 -6 -10
-12 -11 -22 -4 -7 6 -27 9 -45 7 -25 -2 -31 1 -27 12 4 8 1 15 -6 15 -6 0 -8
5 -5 10 4 6 15 8 25 5 10 -3 21 -1 25 5 5 8 14 6 31 -5 22 -14 29 -14 55 -3
16 7 29 17 29 22 0 4 -8 5 -17 1 -24 -10 -57 -8 -61 3 -3 11 -64 0 -107 -18
-22 -10 -25 -14 -14 -17 24 -6 30 -39 10 -57 -21 -19 -57 -21 -67 -4 -4 7 -3
8 4 4 16 -9 28 43 15 63 -13 21 -50 26 -80 10 -20 -11 -26 -10 -40 4 -19 19
-19 19 42 21 23 1 31 6 33 24 2 12 8 22 13 22 5 0 9 8 9 17 0 9 2 14 6 11 3
-3 21 -2 41 2 48 11 66 3 59 -26 -7 -27 -1 -30 20 -10 18 19 18 32 -1 40 -8 3
-15 12 -15 20 0 8 -8 15 -17 15 -32 -1 -57 8 -61 19 -5 15 -42 16 -42 2 0 -5
7 -10 15 -10 8 0 15 -4 15 -10 0 -19 -35 -10 -45 12 -12 26 -35 36 -35 15 0
-9 -13 -18 -29 -22 -31 -7 -32 -7 -34 -93 -1 -28 -4 -52 -6 -52 -2 0 -22 5
-43 12 -35 10 -41 10 -50 -5 -11 -21 -28 -22 -28 -2 0 8 -5 15 -11 15 -6 0 -8
-7 -5 -16 3 -9 -5 -26 -19 -42 -14 -15 -25 -30 -25 -35 0 -8 36 -1 78 14 54
21 67 -1 14 -23 -15 -6 -22 -12 -16 -15 7 -2 10 -13 7 -23 -4 -14 0 -20 10
-20 22 0 32 20 16 31 -10 6 -8 9 8 9 13 0 22 -3 21 -7 -3 -16 15 -43 24 -37 6
4 5 10 -3 15 -14 8 -7 10 96 27 33 5 62 6 65 2 3 -4 14 -9 24 -11 29 -6 20
-22 -17 -35 -17 -6 -30 -15 -28 -20 2 -5 -6 -14 -17 -20 -19 -9 -20 -12 -6
-26 15 -15 14 -17 -5 -23 -11 -3 -21 -11 -21 -16 0 -5 -13 -9 -30 -9 -22 0
-28 -4 -24 -15 8 -21 -14 -45 -40 -45 -27 1 -79 29 -53 30 9 0 17 4 17 9 0 5
10 13 21 16 15 5 18 10 9 15 -9 5 -8 9 3 13 8 3 20 0 27 -6 10 -10 11 -5 7 21
-4 18 -2 32 3 32 6 0 10 4 10 9 0 22 -91 -15 -116 -48 -10 -13 -33 -17 -116
-20 -25 -1 -27 -3 -18 -25 8 -21 5 -25 -16 -30 -13 -4 -24 -11 -24 -17 0 -6 5
-7 11 -3 8 4 9 -1 4 -16 -5 -15 -4 -20 4 -16 6 4 11 0 11 -8 0 -9 -4 -16 -9
-16 -14 0 -7 -88 7 -102 11 -11 19 -7 43 22 16 19 29 29 29 23 0 -6 9 -9 20
-6 12 3 29 -2 39 -11 22 -20 54 -11 47 13 -3 9 2 25 10 36 13 17 16 18 24 5 7
-11 5 -16 -5 -18 -19 -4 -19 -28 -1 -35 10 -4 18 4 25 24 5 16 17 29 25 29 9
0 16 5 16 10 0 6 -10 10 -22 10 -17 0 -19 3 -10 12 7 7 12 18 12 25 0 14 20
37 51 61 14 10 18 10 23 -3 4 -10 2 -14 -5 -9 -10 6 -28 -12 -29 -28 0 -13 34
4 62 30 14 13 31 21 37 18 6 -4 11 -1 11 7 0 7 11 24 24 36 l24 23 7 -21 c4
-14 15 -21 31 -21 16 0 23 -4 18 -11 -5 -8 1 -10 19 -7 15 3 24 2 22 -2 -3 -4
6 -11 20 -14 14 -4 25 -13 25 -20 0 -8 9 -16 20 -19 11 -3 20 -13 20 -22 0 -9
10 -26 23 -37 12 -11 16 -16 8 -12 -7 3 -17 1 -21 -7 -12 -18 0 -101 16 -120
8 -8 14 -19 14 -24 0 -5 8 -17 18 -28 16 -19 16 -20 0 -14 -19 7 -26 -17 -8
-28 6 -3 10 -17 10 -30 0 -16 4 -23 13 -19 23 9 39 -23 41 -83 2 -72 -17 -114
-56 -121 -14 -2 -16 6 -11 69 3 47 2 69 -5 65 -6 -4 -13 15 -17 46 -18 149
-46 216 -95 228 -38 10 -50 1 -50 -34 0 -36 -8 -48 -66 -100 -30 -26 -54 -38
-83 -41 -22 -2 -55 -12 -72 -22 -24 -13 -33 -15 -36 -5 -6 17 -33 15 -33 -2 0
-8 4 -26 10 -41 9 -23 12 -24 31 -14 15 8 24 8 32 0 6 -6 19 -11 30 -11 10 0
16 -4 13 -8 -3 -5 4 -19 15 -30 19 -22 19 -22 -1 -42 l-20 -20 0 25 c0 23 -2
24 -25 13 -18 -8 -29 -8 -36 -1 -12 12 -59 5 -59 -8 0 -5 16 -9 36 -9 22 0 33
-4 29 -10 -13 -20 -85 -60 -109 -60 -24 0 -48 -17 -60 -42 -5 -10 -7 -10 -12
-1 -8 17 -44 -2 -44 -22 0 -8 -6 -15 -12 -15 -10 0 -9 -3 1 -9 7 -5 23 -7 35
-4 20 4 20 4 3 -11 -11 -8 -26 -12 -35 -9 -12 5 -14 2 -8 -12 4 -12 -1 -26
-15 -42 -13 -13 -17 -23 -10 -23 7 0 9 -5 5 -12 -5 -8 -2 -9 9 -5 19 7 23 -8
6 -18 -6 -4 -8 -14 -5 -22 9 -23 -3 -34 -24 -21 -15 10 -18 20 -14 45 4 27 2
33 -12 33 -16 0 -16 1 1 14 16 12 17 16 6 30 -9 11 -10 16 -2 16 6 0 11 -5 11
-11 0 -5 5 -7 12 -3 9 6 9 9 -1 12 -7 2 -16 15 -21 28 -8 21 -12 23 -37 13
-15 -6 -31 -16 -35 -22 -8 -13 -68 -17 -68 -5 0 4 -9 8 -20 8 -11 0 -20 5 -20
11 0 6 -16 2 -36 -10 -19 -12 -43 -21 -52 -21 -17 0 -95 -50 -88 -57 2 -2 21
4 43 14 21 10 49 18 63 18 14 0 31 6 39 13 21 20 24 7 6 -28 -9 -18 -18 -44
-19 -59 -3 -22 -9 -27 -41 -32 -20 -3 -40 -11 -44 -16 -3 -6 -13 -13 -21 -16
-12 -4 -12 -6 2 -6 14 -1 15 -5 5 -32 -11 -29 -10 -33 18 -55 29 -24 29 -25
11 -39 -23 -17 -24 -15 36 -44 50 -24 97 -20 106 9 3 7 0 10 -6 6 -7 -4 -10 1
-8 11 2 10 7 38 10 63 13 82 17 100 28 100 5 0 7 -12 3 -30 -4 -17 -2 -30 3
-30 5 0 9 -6 9 -12 -3 -28 39 -99 60 -104 12 -3 29 -21 38 -40 9 -19 20 -34
25 -34 6 0 10 -8 10 -19 0 -10 7 -24 15 -31 20 -16 26 0 22 60 -2 35 -7 46
-23 49 -36 6 -45 21 -29 44 8 12 15 29 15 39 0 11 5 15 15 12 8 -4 15 -13 15
-21 0 -8 5 -11 10 -8 7 5 8 11 1 19 -5 6 -11 23 -13 36 -2 14 -7 31 -11 38
-12 19 1 31 31 30 15 -1 35 2 45 6 12 6 17 4 17 -8 0 -9 -8 -16 -18 -16 -10 0
-23 -5 -30 -12 -14 -14 -16 -48 -3 -48 17 0 24 22 10 31 -10 6 -8 9 9 9 18 0
22 -6 22 -30 0 -22 -5 -30 -17 -30 -13 0 -14 -3 -6 -11 14 -14 48 14 38 31 -3
5 -1 10 4 10 6 0 11 -6 11 -12 0 -10 3 -9 9 1 5 8 11 9 15 3 3 -6 2 -13 -4
-17 -6 -4 -8 -11 -4 -16 3 -5 2 -9 -3 -8 -21 4 -31 -3 -36 -21 -3 -11 -1 -20
4 -20 5 0 9 5 9 11 0 6 8 9 18 7 17 -3 20 -23 3 -23 -5 0 -13 -3 -17 -7 -3 -4
2 -6 13 -4 13 3 23 -4 31 -24 15 -33 39 -45 58 -29 8 6 20 9 28 6 8 -3 17 1
20 9 3 8 -1 14 -9 14 -8 0 -15 8 -15 18 0 10 -4 22 -9 27 -5 6 -12 26 -15 46
-5 30 -2 38 18 49 15 8 22 18 19 30 -3 10 0 28 7 39 10 19 12 20 27 6 9 -9 24
-13 37 -10 21 6 21 6 -1 -14 -13 -10 -23 -24 -23 -30 0 -6 -4 -11 -10 -11 -5
0 -10 -4 -10 -10 0 -5 11 -10 24 -10 13 0 26 -7 30 -15 3 -8 12 -15 20 -15 8
0 20 -8 25 -17 10 -17 10 -17 11 1 0 18 1 18 20 1 19 -17 18 -41 -1 -30 -5 4
-9 -1 -9 -9 0 -9 4 -16 9 -16 4 0 6 -11 3 -25 -6 -33 25 -115 44 -115 12 0 20
32 15 63 0 4 3 7 9 7 5 0 10 -7 10 -15 0 -8 7 -15 15 -15 8 0 12 -6 10 -12 -6
-15 53 -58 78 -58 25 0 32 -28 13 -49 -16 -18 -16 -20 6 -40 19 -19 20 -23 8
-31 -11 -7 -20 -4 -31 9 -12 15 -19 17 -28 8 -16 -16 -14 -30 5 -23 10 4 15 1
13 -12 -4 -29 12 -72 27 -72 8 0 14 7 14 16 0 27 20 54 35 48 8 -4 15 -12 15
-20 0 -8 4 -14 10 -14 5 0 7 -7 4 -15 -4 -10 -2 -14 7 -10 27 9 45 -18 41 -61
-3 -34 -7 -41 -22 -37 -11 3 -16 11 -13 21 5 22 -16 48 -44 57 -17 5 -23 2
-23 -9 0 -10 6 -13 15 -10 18 7 18 4 5 -31 -8 -21 -6 -30 10 -48 26 -27 24
-73 -2 -69 -11 2 -18 -3 -18 -13 0 -8 5 -15 11 -15 5 0 7 -4 4 -10 -3 -5 -2
-10 3 -10 5 0 12 9 15 21 7 25 27 16 27 -12 0 -20 16 -54 38 -77 14 -16 7 -32
-15 -32 -10 0 -13 6 -9 16 5 12 2 15 -10 10 -11 -4 -15 -2 -11 8 4 10 -4 13
-31 13 -20 -1 -40 -6 -44 -11 -5 -6 -8 -2 -8 10 0 27 -19 43 -54 46 -17 2 -25
7 -22 15 3 7 1 13 -3 13 -5 0 -11 -5 -13 -11 -2 -5 -11 -7 -21 -3 -17 6 -17 8
-2 24 15 17 15 19 0 27 -14 8 -14 13 -2 41 7 18 16 29 20 25 4 -3 7 1 7 11 0
9 -11 21 -25 26 -15 6 -25 17 -25 29 0 11 -7 27 -16 35 -10 10 -11 16 -4 16 7
0 10 6 7 14 -3 8 -1 17 6 19 7 2 4 3 -7 1 -24 -4 -68 25 -63 40 3 7 -1 20 -8
29 -11 16 -13 16 -19 2 -4 -10 -2 -14 5 -9 7 4 10 2 8 -5 -7 -21 -23 -17 -34
7 -10 22 -45 31 -45 11 0 -6 -11 -24 -25 -41 -31 -37 -31 -44 -1 -89 18 -27
22 -39 14 -47 -8 -8 -6 -13 8 -19 24 -9 80 -69 101 -108 l16 -30 -25 23 c-13
12 -29 22 -36 22 -6 0 -16 9 -22 19 -5 11 -24 33 -41 50 -16 17 -27 36 -24 41
7 11 -12 40 -25 40 -5 0 -13 -12 -19 -27 l-10 -28 2 30 c1 17 6 33 10 36 5 4
3 17 -5 30 -39 68 -73 70 -73 4 0 -45 21 -78 35 -54 5 7 13 10 17 5 4 -5 2
-11 -4 -13 -19 -7 -16 -29 10 -73 21 -38 37 -51 37 -30 0 6 5 10 10 10 14 0
13 -27 -2 -32 -16 -6 -1 -58 16 -58 8 0 16 -11 18 -25 3 -14 2 -25 -2 -25 -13
0 -20 -44 -8 -51 7 -4 15 -6 19 -3 4 2 13 -4 20 -13 12 -15 12 -16 -3 -10 -10
3 -18 2 -18 -3 0 -6 -7 -10 -16 -10 -14 0 -14 -3 -4 -15 14 -16 3 -20 -18 -6
-8 4 -13 17 -12 27 3 30 1 36 -12 27 -7 -4 -19 -8 -27 -10 -8 -1 -18 -9 -23
-17 -7 -12 -14 -14 -27 -6 -24 12 -32 3 -25 -26 4 -15 2 -24 -6 -24 -6 0 -9
-4 -6 -9 3 -4 -6 -6 -19 -3 -20 3 -25 0 -25 -17 0 -23 -7 -26 -29 -12 -11 7
-10 11 5 20 17 11 17 11 -3 6 -32 -9 -48 4 -26 20 10 7 21 11 25 8 5 -2 11 3
14 11 3 9 15 16 26 16 10 0 16 5 13 10 -3 6 -1 10 4 10 6 0 11 5 11 10 0 6 -9
10 -19 10 -11 0 -23 9 -26 21 -4 12 -10 18 -14 13 -10 -15 -48 -33 -55 -27 -3
3 -1 11 4 18 7 9 1 11 -23 10 -17 -2 -36 0 -42 3 -5 4 -16 7 -23 8 -31 5 -23
14 12 14 46 0 45 18 -2 39 -18 8 -32 20 -32 27 0 16 -23 24 -49 17 -15 -4 -21
-13 -21 -34 0 -16 -6 -29 -12 -30 -10 0 -10 -2 0 -6 6 -2 12 -11 12 -19 0 -8
5 -14 10 -14 6 0 10 -5 10 -11 0 -6 -9 -8 -20 -4 -11 3 -20 2 -20 -4 0 -5 9
-13 20 -16 11 -3 20 -10 20 -15 0 -15 -54 9 -72 33 -10 13 -13 27 -8 37 16 30
19 123 4 137 -8 8 -14 10 -14 4 0 -24 -20 -9 -28 22 -5 21 -15 33 -29 35 -12
2 -23 13 -27 25 -3 11 -8 19 -10 16 -3 -3 -2 -19 3 -35 6 -21 4 -33 -6 -43
-21 -19 -27 -9 -34 54 -1 6 0 16 2 24 2 7 -2 16 -10 19 -8 2 -11 0 -8 -5 4 -6
-4 -11 -19 -11 -14 0 -31 -5 -37 -11 -8 -8 -6 -11 7 -11 10 0 16 -6 13 -12 -2
-7 -16 -13 -32 -13 -22 0 -29 -5 -32 -24 -4 -30 -44 -86 -52 -74 -12 19 -40
21 -80 7 -23 -8 -50 -16 -59 -18 -9 -1 -25 -7 -36 -11 -16 -7 -16 -9 -2 -17
19 -11 21 -34 4 -40 -28 -9 -69 8 -86 37 -18 29 -18 31 1 62 10 18 14 33 8 33
-11 0 -5 26 12 47 7 9 14 10 29 2 25 -14 31 -8 22 25 -4 16 -15 28 -30 32 -13
3 -24 10 -24 14 0 5 -15 24 -32 43 -18 19 -33 43 -33 53 0 10 -11 31 -25 46
-26 28 -103 61 -116 50 -4 -4 -4 -1 0 6 4 7 12 10 17 7 5 -4 9 -1 9 4 0 16
-16 13 -35 -5 -13 -13 -13 -19 -3 -33 21 -27 41 -39 55 -34 16 6 45 -16 37
-28 -3 -5 -10 -9 -15 -9 -6 0 -7 5 -4 10 3 6 -4 10 -17 10 -13 0 -40 15 -60
33 -36 32 -37 34 -32 89 4 50 2 58 -16 68 -11 6 -20 7 -20 3 0 -4 -5 0 -11 10
-8 13 -7 22 2 33 11 13 9 14 -14 9 -17 -5 -27 -3 -27 4 0 6 5 11 10 11 15 0
12 27 -6 62 -11 21 -18 27 -24 18 -5 -8 -10 -9 -14 -2 -7 12 5 21 34 27 15 3
22 -3 27 -23 7 -28 63 -92 63 -72 0 8 9 11 24 8 19 -4 22 -1 18 14 -3 14 -1
17 14 11 17 -6 17 -5 5 10 -8 10 -10 24 -6 34 10 22 6 65 -6 78 -14 14 -10 68
6 89 8 11 15 28 15 38 0 10 7 18 15 18 8 0 15 8 15 18 0 12 3 13 8 5 12 -19
43 76 40 120 -1 21 -7 37 -13 37 -5 0 -4 4 4 9 8 5 19 7 26 5 14 -6 35 38 35
74 -1 24 -2 23 -15 -11 -7 -21 -16 -41 -19 -44 -11 -11 -19 6 -11 24 5 10 9
25 9 33 1 8 16 19 34 25 31 9 33 12 28 40 l-6 30 30 -33 c17 -19 30 -44 30
-58 0 -14 5 -35 11 -46 8 -15 8 -19 0 -14 -6 4 -11 3 -11 -3 0 -13 29 -41 43
-41 7 0 18 -15 25 -32 7 -18 17 -40 21 -48 13 -24 142 -85 186 -88 21 -2 37
-1 34 2 -3 3 -19 6 -37 8 -24 2 -29 5 -20 15 7 9 -1 19 -35 40 -29 18 -54 46
-73 78 -15 28 -34 55 -42 61 -12 9 -12 14 -1 33 12 19 12 23 -3 32 -20 11 -24
54 -8 64 15 9 9 83 -7 89 -9 4 -13 -4 -13 -25 0 -17 -4 -28 -10 -24 -11 7 -9
77 2 85 11 9 -3 50 -17 50 -19 0 -61 37 -52 46 4 4 13 2 19 -4 7 -7 25 -12 41
-12 24 0 31 -7 48 -45 11 -25 19 -53 18 -63 -6 -60 12 -55 36 11 21 57 26 87
17 102 -4 6 -7 16 -8 23 -3 18 -14 29 -14 14 0 -7 -5 -12 -12 -12 -6 0 -8 3
-5 7 4 3 -1 12 -11 19 -16 13 -16 13 2 14 13 0 16 5 11 18 -4 9 -8 25 -11 36
-5 27 -11 31 -28 17 -8 -7 -17 -8 -20 -3 -6 10 -76 -8 -76 -20 0 -5 -9 -8 -20
-8 -11 0 -20 -4 -20 -10 0 -13 6 -13 31 0 26 14 25 -4 -1 -30 -22 -22 -77 -29
-63 -7 11 18 13 37 3 37 -5 0 -22 -11 -38 -25 -17 -14 -33 -25 -37 -25 -5 0
-24 -16 -43 -36 -20 -20 -52 -44 -73 -53 -60 -27 -229 -174 -229 -199 0 -6 -9
-16 -21 -22 -17 -9 -23 -8 -34 7 -12 16 -10 21 18 45 18 15 39 28 47 28 11 1
11 3 -3 8 -15 7 -12 13 22 50 22 23 46 42 54 42 25 0 71 45 93 89 10 22 24 41
30 41 7 0 14 10 17 23 4 12 39 46 84 79 81 58 206 184 198 198 -3 4 1 10 9 13
16 6 14 -39 -3 -56 -14 -14 -14 -40 0 -31 6 3 15 1 19 -6 10 -16 31 -4 24 14
-4 10 8 16 38 20 39 6 109 45 81 46 -6 0 -19 3 -28 6 -9 4 -15 3 -13 -2 2 -5
-1 -10 -7 -11 -5 -2 -10 5 -10 15 0 9 -11 36 -23 60 -22 41 -22 43 -3 33 32
-18 44 -13 39 13 -4 17 3 34 23 55 15 17 30 39 34 50 3 10 13 21 23 24 9 3 26
8 36 13 15 6 18 4 13 -9 -3 -9 2 -26 12 -38 14 -17 23 -20 49 -14 38 8 43 25
8 25 -14 0 -27 4 -30 9 -8 12 32 21 65 14 21 -4 30 -1 35 10 4 11 20 16 61 16
63 0 71 4 53 26 -12 14 -10 15 16 9 16 -4 40 -11 53 -16 15 -5 28 -5 35 2 7 7
6 10 -2 10 -25 0 -11 20 21 28 24 6 32 14 32 32 0 25 35 45 47 26 5 -7 8 -5 8
5 0 13 9 15 49 11 27 -2 56 0 66 5 10 6 61 10 114 10 92 0 94 0 37 -8z m-526
-59 c0 -5 -7 -10 -16 -10 -8 0 -12 5 -9 10 3 6 10 10 16 10 5 0 9 -4 9 -10z
m-40 -14 c0 -13 -73 -47 -88 -41 -13 5 -7 11 28 25 47 20 60 23 60 16z m-5
-46 c3 -5 1 -10 -4 -10 -6 0 -11 5 -11 10 0 6 2 10 4 10 3 0 8 -4 11 -10z
m645 -50 c0 -5 -5 -10 -11 -10 -5 0 -7 5 -4 10 3 6 8 10 11 10 2 0 4 -4 4 -10z
m691 -13 c11 8 18 6 31 -6 17 -17 12 -18 -85 -12 -4 1 -2 10 5 20 11 18 13 18
24 3 9 -12 15 -13 25 -5z m-1586 -16 c-4 -12 -15 -21 -27 -21 -18 0 -19 2 -7
18 29 36 45 38 34 3z m-105 -25 c0 -3 -4 -8 -10 -11 -5 -3 -10 -1 -10 4 0 6 5
11 10 11 6 0 10 -2 10 -4z m25 -46 c-3 -5 -12 -10 -18 -10 -7 0 -6 4 3 10 19
12 23 12 15 0z m-55 -30 c0 -5 -7 -10 -16 -10 -8 0 -12 5 -9 10 3 6 10 10 16
10 5 0 9 -4 9 -10z m934 -5 c-4 -8 -11 -12 -16 -9 -6 4 -5 10 3 15 19 12 19
11 13 -6z m693 -11 c-3 -3 -12 -4 -19 -1 -8 3 -5 6 6 6 11 1 17 -2 13 -5z
m-1697 -39 c10 -13 8 -19 -13 -39 -14 -13 -28 -21 -31 -18 -3 3 -6 -3 -6 -14
0 -10 -12 -30 -25 -43 -14 -12 -22 -28 -18 -34 4 -6 1 -7 -6 -2 -8 4 -18 -1
-27 -14 -8 -12 -21 -21 -28 -21 -8 0 -19 -6 -25 -14 -13 -16 -49 -18 -67 -4
-7 5 -16 -3 -24 -20 -24 -52 -28 -57 -42 -54 -8 1 -20 -9 -26 -23 -11 -24 -31
-32 -45 -19 -4 4 2 19 13 34 11 16 20 32 20 36 0 4 7 16 17 26 10 11 12 18 4
18 -6 0 -21 -11 -33 -25 -25 -29 -40 -33 -31 -7 7 19 42 52 55 52 4 0 8 6 8
13 0 17 60 82 83 90 15 6 17 0 17 -43 0 -54 16 -77 23 -33 4 27 4 27 12 6 8
-25 13 -27 35 -13 13 8 12 10 -2 10 -10 0 -18 7 -18 15 0 8 9 15 20 15 22 0
27 16 8 22 -9 3 -8 9 4 21 9 9 20 17 25 17 5 0 16 9 26 20 9 11 24 20 32 20 8
0 20 9 27 20 15 24 22 25 38 5z m1707 1 c4 -7 26 -25 47 -40 21 -14 32 -26 23
-26 -9 0 -19 5 -22 10 -3 6 -18 10 -33 10 -25 -1 -25 -2 -9 -14 18 -14 22 -26
9 -26 -17 0 -53 38 -42 45 16 10 12 25 -6 18 -14 -5 -14 -3 -3 16 16 24 25 26
36 7z m-342 -15 c-3 -6 -14 -11 -23 -11 -15 1 -15 2 2 15 21 16 32 13 21 -4z
m-65 -33 c0 -13 -20 -9 -36 6 -21 21 -17 26 11 13 14 -7 25 -15 25 -19z
m-1180 -23 c0 -8 -7 -15 -15 -15 -13 0 -14 3 -3 15 16 18 18 18 18 0z m1250
-2 c0 -10 -20 -40 -20 -31 0 3 -3 13 -6 22 -4 11 -1 16 10 16 9 0 16 -3 16 -7z
m120 -28 c0 -5 -5 -3 -10 5 -5 8 -10 20 -10 25 0 6 5 3 10 -5 5 -8 10 -19 10
-25z m-240 15 c0 -5 -16 -10 -36 -10 -21 0 -33 4 -29 10 3 6 19 10 36 10 16 0
29 -4 29 -10z m31 -3 c-1 -12 -15 -9 -19 4 -3 6 1 10 8 8 6 -3 11 -8 11 -12z
m-1311 -36 c-6 -16 -18 -32 -26 -35 -10 -4 -9 6 7 35 23 46 38 46 19 0z m1790
35 c0 -3 -4 -8 -10 -11 -5 -3 -10 -1 -10 4 0 6 5 11 10 11 6 0 10 -2 10 -4z
m-220 -46 c0 -5 -2 -10 -4 -10 -3 0 -8 5 -11 10 -3 6 -1 10 4 10 6 0 11 -4 11
-10z m299 -65 c0 -5 -6 -1 -14 9 -8 11 -15 27 -15 35 1 17 29 -26 29 -44z
m-1969 -20 c-7 -8 -17 -15 -22 -15 -6 0 -5 7 2 15 7 8 17 15 22 15 6 0 5 -7
-2 -15z m977 -23 c-13 -3 -16 -10 -12 -25 6 -21 5 -21 -9 -4 -20 25 -11 46 17
39 19 -5 19 -7 4 -10z m-1027 -7 c-7 -9 -15 -13 -19 -10 -3 3 1 10 9 15 21 14
24 12 10 -5z m1060 -9 c0 -3 -4 -8 -10 -11 -5 -3 -10 -1 -10 4 0 6 5 11 10 11
6 0 10 -2 10 -4z m683 -21 c-5 -16 -33 -21 -33 -7 0 13 22 32 31 26 5 -2 6
-11 2 -19z m303 -22 c-10 -10 -19 5 -10 18 6 11 8 11 12 0 2 -7 1 -15 -2 -18z
m-1756 7 c-8 -5 -22 -9 -30 -9 -10 0 -8 3 5 9 27 12 43 12 25 0z m1560 -9 c12
-24 13 -31 1 -31 -5 0 -11 9 -14 20 -3 11 -11 20 -17 20 -7 0 -10 -7 -6 -15 3
-8 1 -15 -4 -15 -6 0 -10 6 -10 13 0 32 34 37 50 8z m-73 3 c-3 -3 -12 -4 -19
-1 -8 3 -5 6 6 6 11 1 17 -2 13 -5z m-660 -26 c-3 -8 -6 -5 -6 6 -1 11 2 17 5
13 3 -3 4 -12 1 -19z m-7 -29 c0 -6 -4 -7 -10 -4 -5 3 -10 11 -10 16 0 6 5 7
10 4 6 -3 10 -11 10 -16z m760 -41 c0 -4 -7 -8 -15 -8 -8 0 -15 4 -15 8 0 5 7
9 15 9 8 0 15 -4 15 -9z m179 -45 c5 -10 13 -34 19 -54 7 -28 7 -36 -4 -36
-13 0 -25 20 -29 47 -1 8 -5 25 -9 38 -9 26 9 30 23 5z m71 -33 c0 -19 7 -34
20 -42 11 -7 20 -19 20 -27 0 -16 29 -40 49 -41 11 0 9 4 -5 15 -17 12 -17 14
-2 15 44 1 97 -36 98 -69 0 -11 -3 -11 -16 0 -11 9 -17 10 -22 2 -4 -6 -19
-15 -35 -18 -15 -4 -24 -11 -21 -16 3 -5 10 -7 15 -4 5 4 12 0 15 -8 3 -9 13
-13 26 -9 17 4 20 2 14 -13 -5 -15 -4 -16 9 -5 8 7 15 10 15 7 0 -3 2 -12 6
-20 3 -10 -4 -16 -26 -21 -24 -4 -30 -10 -26 -23 7 -22 -13 -55 -21 -36 -3 8
-14 11 -29 7 -18 -5 -24 -2 -24 10 0 9 -2 16 -4 16 -2 0 -12 3 -22 7 -14 5
-16 2 -11 -19 6 -22 3 -26 -18 -30 -13 -3 -22 -1 -19 4 3 5 3 19 0 32 -4 17
-12 22 -36 20 -29 -2 -40 9 -20 21 19 12 10 25 -17 25 -25 1 -26 2 -10 14 9 7
17 23 17 35 0 11 4 21 10 21 5 0 20 11 34 25 14 14 33 25 42 25 15 0 15 3 -4
21 -18 16 -21 27 -16 55 4 22 2 34 -5 34 -6 0 -11 5 -11 10 0 6 7 10 15 10 10
0 15 -10 15 -30z m130 16 c0 -6 -7 -19 -14 -29 -12 -15 -15 -15 -26 -2 -7 8
-9 15 -5 15 4 0 2 6 -4 13 -8 11 -5 14 19 14 17 0 30 -5 30 -11z m-403 -102
c-3 -3 -12 -4 -19 -1 -8 3 -5 6 6 6 11 1 17 -2 13 -5z m-1777 -24 c0 -5 -4
-10 -10 -10 -5 0 -10 5 -10 10 0 6 5 10 10 10 6 0 10 -4 10 -10z m1715 -1 c11
-17 -1 -21 -15 -4 -8 9 -8 15 -2 15 6 0 14 -5 17 -11z m560 -9 c3 -5 2 -10 -4
-10 -5 0 -13 5 -16 10 -3 6 -2 10 4 10 5 0 13 -4 16 -10z m-475 -45 c19 -3 36
-8 39 -10 2 -3 10 0 18 7 11 9 12 7 6 -8 -3 -10 -12 -23 -20 -27 -22 -14 -15
-37 12 -37 14 0 24 3 24 8 -3 18 3 46 8 35 2 -7 10 -13 17 -13 20 0 55 -55 59
-92 2 -18 13 -55 25 -82 12 -26 19 -52 16 -57 -9 -15 -21 -2 -27 30 -5 24 -11
29 -27 26 -11 -2 -18 0 -15 5 6 10 -33 25 -54 21 -7 -1 -10 2 -7 8 4 5 2 12
-4 16 -5 3 -10 1 -10 -4 0 -21 -20 -10 -26 14 -3 14 -9 25 -13 25 -3 0 -23 15
-44 34 -26 23 -35 38 -31 50 4 11 -2 26 -16 41 -20 22 -21 23 -3 27 10 3 23 1
28 -3 6 -5 26 -11 45 -14z m-1865 -5 c-3 -5 -12 -10 -18 -10 -7 0 -6 4 3 10
19 12 23 12 15 0z m75 -44 c0 -3 -4 -8 -10 -11 -5 -3 -10 -1 -10 4 0 6 5 11
10 11 6 0 10 -2 10 -4z m208 -42 c-4 -3 -12 5 -18 18 -12 22 -12 22 6 6 10
-10 15 -20 12 -24z m-238 17 c0 -5 -7 -11 -15 -15 -15 -5 -20 5 -8 17 9 10 23
9 23 -2z m1364 -36 c-24 -18 -34 -19 -34 -2 0 17 43 39 49 25 1 -5 -5 -16 -15
-23z m-74 1 c0 -2 -7 -7 -16 -10 -8 -3 -12 -2 -9 4 6 10 25 14 25 6z m-1353
-28 c-3 -8 -6 -5 -6 6 -1 11 2 17 5 13 3 -3 4 -12 1 -19z m1223 -28 c0 -5 -5
-10 -11 -10 -5 0 -7 5 -4 10 3 6 8 10 11 10 2 0 4 -4 4 -10z m964 -6 c20 -8
21 -33 1 -48 -13 -10 -13 -14 0 -40 12 -22 13 -31 4 -37 -6 -4 -8 -12 -5 -18
4 -6 13 -8 19 -4 7 4 17 8 22 9 6 0 16 2 23 2 6 1 12 9 12 18 0 11 6 14 21 9
15 -5 19 -4 15 4 -4 6 -4 17 1 24 4 6 8 23 8 37 0 14 5 25 12 25 6 0 15 3 19
7 11 12 24 -1 17 -17 -3 -10 1 -15 12 -15 9 0 14 4 10 9 -3 5 -1 12 4 16 6 3
15 -4 21 -15 6 -12 21 -20 35 -20 14 0 25 -5 25 -11 0 -5 6 -7 13 -3 6 4 3 -2
-7 -14 -12 -14 -14 -22 -7 -22 7 0 10 -4 7 -9 -8 -13 42 -20 95 -14 34 4 49 1
62 -11 9 -9 29 -19 46 -22 40 -8 63 -58 35 -78 -8 -6 -17 -35 -21 -64 -4 -37
-9 -50 -16 -43 -15 15 -23 14 -42 -6 -14 -13 -21 -14 -36 -5 -32 20 -43 14
-24 -14 12 -19 14 -29 5 -39 -7 -8 -8 -20 -4 -26 5 -8 3 -9 -5 -4 -8 4 -11 20
-9 37 3 21 0 32 -14 39 -14 8 -18 6 -18 -6 0 -9 -5 -13 -11 -10 -6 4 -24 -7
-41 -24 -22 -22 -34 -28 -43 -21 -6 5 -15 7 -18 3 -4 -3 -7 -1 -7 6 0 8 -5 7
-16 -3 -18 -18 -49 -22 -38 -5 5 9 -1 10 -22 5 -16 -4 -32 -13 -36 -19 -6 -9
-8 -9 -8 1 0 6 -5 12 -11 12 -6 0 -9 -6 -6 -14 7 -17 -66 -68 -85 -61 -7 3
-28 -8 -45 -24 -24 -21 -30 -34 -26 -51 5 -18 2 -21 -18 -19 -34 3 -79 -17
-79 -36 0 -8 5 -24 12 -35 15 -23 4 -37 -16 -21 -11 9 -16 9 -22 0 -4 -7 -3
-9 3 -6 6 4 13 -2 16 -13 4 -16 0 -20 -19 -20 -14 0 -24 6 -24 14 0 15 -34 11
-57 -6 -7 -6 -14 -5 -18 2 -9 14 -45 -20 -37 -35 3 -5 -1 -5 -8 2 -15 14 -40
-5 -40 -31 0 -18 -15 -21 -25 -6 -11 18 59 109 78 102 5 -1 14 1 21 6 6 6 25
13 43 16 17 4 37 14 43 21 10 12 7 13 -17 6 -24 -7 -29 -5 -29 10 0 10 2 16 4
14 8 -8 36 28 39 49 2 11 10 24 18 29 8 4 15 16 15 27 0 10 6 20 13 23 6 2 9
7 5 11 -6 7 -36 -14 -79 -56 -10 -10 -25 -15 -34 -12 -13 5 -13 9 0 35 9 16
28 42 44 58 16 16 26 33 23 36 -4 4 -7 19 -8 35 -1 22 3 28 16 27 10 -1 16 -7
13 -14 -6 -15 13 -18 21 -4 11 17 -6 42 -24 36 -10 -3 -21 -1 -25 5 -4 6 11 9
43 8 33 -2 48 -6 45 -14 -2 -6 5 -14 16 -17 18 -4 21 0 21 23 0 32 14 40 55
33 20 -4 26 -2 21 6 -4 6 -12 9 -17 6 -5 -4 -9 3 -9 14 0 12 -4 21 -9 21 -5 0
-12 18 -16 41 -6 34 -4 43 13 55 13 9 19 23 17 39 -2 24 5 32 18 18 4 -3 2
-12 -5 -20 -8 -11 -7 -12 6 -7 19 7 21 25 4 42 -8 8 -8 15 2 27 9 11 10 18 1
28 -6 8 -8 17 -4 20 8 8 8 8 27 1z m-816 -25 c10 -15 11 -24 3 -32 -14 -14
-30 1 -36 31 -5 28 16 29 33 1z m750 -13 c6 -13 8 -26 5 -29 -8 -9 -40 27 -35
41 6 19 18 14 30 -12z m-2198 -26 c-4 -19 -9 -30 -9 -25 -1 6 -8 -3 -16 -20
-8 -19 -14 -24 -14 -13 -1 25 36 103 46 94 1 0 -2 -17 -7 -36z m2968 28 c-7
-20 -48 -23 -48 -4 0 11 9 16 26 16 16 0 24 -5 22 -12z m-871 -50 c-3 -8 -6
-5 -6 6 -1 11 2 17 5 13 3 -3 4 -12 1 -19z m-629 -16 c12 -12 27 -22 32 -22 6
0 10 -7 10 -15 0 -8 9 -15 20 -15 11 0 20 -5 20 -10 0 -6 11 -8 25 -4 18 4 25
2 25 -9 0 -18 -27 -31 -32 -15 -3 7 -10 5 -20 -5 -18 -18 -38 -5 -38 25 0 10
-7 18 -15 18 -8 0 -15 -4 -15 -10 0 -5 -6 -7 -14 -4 -8 3 -19 -3 -26 -15 -13
-26 -27 -27 -34 -3 -4 11 -15 18 -29 18 -18 -1 -21 4 -19 23 3 32 8 36 25 22
16 -12 47 -5 47 11 0 6 -8 17 -17 24 -17 13 -16 14 7 11 14 -1 35 -12 48 -25z
m-1721 -17 c-4 -8 -11 -15 -17 -15 -6 0 -6 7 2 20 14 22 24 19 15 -5z m55 -41
c-11 -27 -27 -66 -36 -86 -11 -27 -13 -39 -4 -44 7 -4 8 -3 4 4 -4 7 -2 12 3
12 6 0 11 8 12 18 0 12 2 13 6 3 4 -10 9 -8 20 10 l14 24 -7 -25 c-4 -14 -9
-31 -11 -37 -3 -7 2 -13 12 -13 11 0 15 -5 12 -14 -3 -8 -1 -17 6 -19 7 -2 9
-7 6 -11 -3 -3 -15 3 -27 15 -14 12 -30 18 -41 14 -20 -6 -71 -93 -71 -120 0
-8 -5 -15 -11 -15 -7 0 -9 11 -6 27 5 29 -10 83 -24 83 -4 0 -6 7 -3 15 4 8
11 12 18 8 8 -5 8 -3 0 8 -10 14 -11 55 -1 65 3 4 9 -7 14 -24 7 -28 10 -29
27 -17 10 8 20 24 21 37 3 28 44 108 55 108 4 0 11 10 15 23 3 12 8 17 11 11
3 -6 -4 -33 -14 -60z m2114 55 c10 -17 -13 -36 -27 -22 -12 12 -4 33 11 33 5
0 12 -5 16 -11z m-116 -23 c0 -11 -19 -15 -25 -6 -3 5 1 10 9 10 9 0 16 -2 16
-4z m1310 -6 c0 -5 -7 -7 -15 -4 -8 4 -15 8 -15 10 0 2 7 4 15 4 8 0 15 -4 15
-10z m-3400 -9 c0 -5 -7 -14 -15 -21 -16 -14 -18 -10 -9 14 6 17 24 22 24 7z
m232 -23 c-7 -7 -12 -8 -12 -2 0 14 12 26 19 19 2 -3 -1 -11 -7 -17z m1322
-34 c-3 -12 -1 -25 4 -28 7 -4 6 -15 -1 -31 -16 -32 -57 -31 -57 2 0 13 4 23
10 23 6 0 5 10 -2 25 -9 21 -8 28 8 46 17 19 19 19 31 3 7 -9 10 -27 7 -40z
m1830 14 c7 -29 -8 -48 -18 -22 -3 8 -10 13 -15 10 -18 -11 -22 28 -5 41 21
15 29 9 38 -29z m66 38 c0 -3 -4 -8 -10 -11 -5 -3 -10 -1 -10 4 0 6 5 11 10
11 6 0 10 -2 10 -4z m-2060 -10 c0 -3 -4 -8 -10 -11 -5 -3 -10 -1 -10 4 0 6 5
11 10 11 6 0 10 -2 10 -4z m1901 -34 c8 -21 6 -23 -13 -16 -16 5 -20 3 -15 -9
3 -8 -1 -24 -9 -35 -9 -13 -11 -23 -4 -27 5 -3 10 -12 10 -18 0 -8 -4 -7 -9 2
-7 11 -11 4 -17 -25 l-7 -39 -16 35 c-30 66 -33 68 -52 25 -14 -32 -19 -36
-25 -22 -7 19 -2 56 15 100 12 30 41 36 61 12 11 -14 15 -12 28 15 17 35 41
36 53 2z m129 24 c0 -3 -4 -8 -10 -11 -5 -3 -10 -1 -10 4 0 6 5 11 10 11 6 0
10 -2 10 -4z m-3320 -36 c0 -5 -5 -10 -11 -10 -5 0 -7 5 -4 10 3 6 8 10 11 10
2 0 4 -4 4 -10z m1690 -10 c0 -11 -4 -20 -9 -20 -5 0 -7 9 -4 20 3 11 7 20 9
20 2 0 4 -9 4 -20z m-116 -23 c-23 -13 -38 3 -17 18 13 10 20 10 25 2 4 -7 1
-15 -8 -20z m1686 -11 c0 -8 -7 -16 -15 -20 -10 -4 -15 1 -15 14 0 11 7 20 15
20 8 0 15 -6 15 -14z m-3157 -26 c-4 -14 1 -21 22 -26 19 -5 23 -9 14 -15 -7
-4 -18 -4 -25 1 -6 6 -13 8 -15 5 -3 -2 -6 12 -7 31 -2 20 1 33 7 30 5 -3 7
-15 4 -26z m31 4 c3 -8 2 -12 -4 -9 -6 3 -10 10 -10 16 0 14 7 11 14 -7z
m2211 -3 c3 -5 1 -12 -5 -16 -5 -3 -10 1 -10 9 0 18 6 21 15 7z m-1392 -38
c-7 -2 -19 -2 -25 0 -7 3 -2 5 12 5 14 0 19 -2 13 -5z m477 -3 c0 -5 -4 -10
-10 -10 -5 0 -10 5 -10 10 0 6 5 10 10 10 6 0 10 -4 10 -10z m-480 -36 c0 -2
-7 -4 -15 -4 -8 0 -15 4 -15 10 0 5 7 7 15 4 8 -4 15 -8 15 -10z m794 -21 c-8
-9 -13 -22 -10 -29 3 -8 1 -14 -4 -14 -11 0 -13 24 -4 58 5 17 9 20 20 11 11
-9 11 -14 -2 -26z m-304 -3 c-19 -13 -30 -13 -30 0 0 6 10 10 23 10 18 0 19
-2 7 -10z m1682 -30 c2 -25 0 -39 -7 -37 -5 2 -15 -3 -22 -12 -22 -31 -25 -1
-4 44 12 25 23 45 25 45 2 0 6 -18 8 -40z m-1422 20 c0 -5 -4 -10 -10 -10 -5
0 -10 5 -10 10 0 6 5 10 10 10 6 0 10 -4 10 -10z m-1577 -37 c-6 -14 -8 -14
-14 3 -12 30 -10 37 5 24 8 -6 12 -19 9 -27z m1057 15 c0 -18 -2 -20 -9 -8 -6
8 -7 18 -5 22 9 14 14 9 14 -14z m918 0 c0 -13 2 -51 4 -85 3 -34 1 -60 -4
-57 -4 3 -8 1 -8 -5 0 -6 -16 -18 -35 -27 -30 -14 -38 -14 -52 -3 -15 12 -16
12 -10 -4 6 -15 3 -17 -16 -11 -12 4 -27 7 -34 7 -7 0 -10 4 -8 8 3 4 -11 10
-30 13 -19 4 -35 11 -35 16 0 14 14 12 28 -2 9 -9 15 -9 24 0 9 9 8 12 -5 12
-11 0 -17 8 -17 21 0 19 1 19 16 5 20 -21 74 -21 74 -1 0 18 27 20 32 3 2 -6
10 3 17 20 8 18 17 32 21 32 4 0 5 11 2 25 -4 24 12 55 28 55 4 0 8 -10 8 -22z
m42 -18 c0 -5 -5 -10 -11 -10 -5 0 -7 5 -4 10 3 6 8 10 11 10 2 0 4 -4 4 -10z
m862 -2 c21 3 29 1 24 -7 -4 -6 -11 -9 -16 -6 -4 3 -10 -2 -14 -10 -9 -25 -32
-17 -33 13 -1 15 1 22 3 16 2 -6 19 -8 36 -6z m-1205 -24 c-9 -9 -28 6 -21 18
4 6 10 6 17 -1 6 -6 8 -13 4 -17z m-1677 -34 c0 -5 -5 -10 -11 -10 -5 0 -7 5
-4 10 3 6 8 10 11 10 2 0 4 -4 4 -10z m2801 2 c16 5 36 7 44 4 20 -7 13 -50
-10 -54 -12 -3 -15 0 -9 10 4 7 -2 4 -14 -6 -12 -11 -25 -16 -28 -13 -4 3 -15
2 -25 -3 -12 -7 -19 -6 -21 2 -3 7 -9 8 -19 3 -8 -5 -22 -8 -32 -7 -10 2 -24
-1 -31 -7 -11 -9 -15 -5 -19 16 -3 16 -4 29 -2 31 1 2 21 5 44 7 23 3 49 9 59
14 9 5 21 6 26 1 4 -4 21 -4 37 2z m-3071 -36 c0 -17 -14 -29 -23 -20 -8 8 3
34 14 34 5 0 9 -6 9 -14z m280 10 c0 -2 -7 -7 -16 -10 -8 -3 -12 -2 -9 4 6 10
25 14 25 6z m1840 -6 c0 -5 -9 -10 -20 -10 -11 0 -20 5 -20 10 0 6 9 10 20 10
11 0 20 -4 20 -10z m500 -39 c-26 -37 -76 -44 -76 -11 0 15 7 20 26 20 14 0
34 7 44 15 29 22 31 11 6 -24z m-2295 -11 c1 -48 -10 -53 -19 -8 -4 21 -2 34
6 40 7 4 13 8 13 8 0 0 0 -18 0 -40z m2365 -19 c0 -10 -42 -23 -49 -15 -7 6
20 24 37 24 6 0 12 -4 12 -9z m-103 -25 c-4 -11 2 -14 29 -12 19 2 34 -1 34
-5 0 -5 -15 -9 -33 -9 -18 0 -37 -4 -43 -10 -13 -13 -36 4 -28 23 3 9 13 18
22 20 10 3 19 5 21 6 2 0 1 -5 -2 -13z m-90 -21 c-9 -8 -18 -11 -22 -6 -3 6 3
14 12 20 24 13 29 6 10 -14z m-2237 -5 c0 -5 -7 -7 -15 -4 -8 4 -15 8 -15 10
0 2 7 4 15 4 8 0 15 -4 15 -10z m2350 -20 c0 -5 -5 -10 -11 -10 -5 0 -7 5 -4
10 3 6 8 10 11 10 2 0 4 -4 4 -10z m-110 -9 c0 -11 -31 -24 -39 -16 -3 3 1 10
9 15 19 12 30 12 30 1z m-2403 -23 c-3 -8 -6 -5 -6 6 -1 11 2 17 5 13 3 -3 4
-12 1 -19z m-233 -13 c4 -14 9 -51 12 -83 6 -72 19 -122 38 -147 24 -32 18
-41 -9 -15 -21 19 -25 21 -25 7 0 -9 -4 -17 -9 -17 -5 0 -4 -16 2 -35 8 -28
15 -35 31 -33 16 2 20 -2 18 -18 -2 -12 4 -24 13 -27 8 -4 15 -18 15 -33 0
-43 8 -28 19 36 1 3 6 -2 11 -10 8 -12 10 -10 10 10 0 14 4 20 8 14 4 -6 14
-13 23 -16 9 -4 20 -21 24 -40 8 -32 8 -33 12 -6 3 18 9 25 18 22 10 -4 12 0
8 15 -4 15 -1 21 11 21 12 0 15 -8 14 -31 -2 -19 2 -34 10 -36 7 -3 12 4 12
16 0 26 1 26 47 -4 51 -33 73 -55 73 -73 0 -13 -3 -12 -18 1 -25 23 -31 21
-28 -6 4 -32 14 -47 33 -47 9 0 13 -6 10 -14 -4 -10 5 -19 24 -28 16 -7 29
-19 29 -27 0 -8 7 -11 19 -8 13 3 22 -3 30 -20 6 -14 17 -23 24 -20 13 4 49
-31 42 -43 -2 -4 4 -15 15 -25 33 -30 25 -45 -15 -26 -19 9 -33 21 -30 27 4
13 -73 37 -88 27 -12 -7 -47 26 -41 40 2 7 -4 17 -15 24 -15 10 -22 9 -31 -2
-7 -8 -10 -22 -6 -30 8 -21 -3 -45 -20 -45 -8 0 -14 -7 -14 -17 0 -15 -1 -15
-18 0 -10 10 -22 14 -25 10 -4 -3 -7 4 -7 16 0 24 -27 58 -37 47 -4 -3 -1 -12
5 -18 7 -7 12 -16 12 -22 0 -18 -29 29 -30 47 0 11 -5 15 -11 11 -7 -4 -8 -19
-5 -38 6 -31 6 -31 -9 -8 -9 12 -14 26 -11 31 7 10 -31 61 -45 61 -5 0 -9 -8
-10 -17 0 -14 -3 -13 -11 5 -6 12 -15 22 -20 22 -4 0 -8 8 -8 18 0 20 -33 64
-47 63 -4 -1 -8 15 -9 33 0 19 -7 42 -15 52 -10 12 -14 45 -14 115 0 53 3 95
7 93 11 -7 10 14 -3 37 -25 48 -32 189 -9 189 4 0 11 -11 14 -25z m462 -30 c6
-23 0 -45 -10 -34 -10 12 -15 59 -6 59 5 0 12 -11 16 -25z m1449 -55 c3 -5 1
-10 -4 -10 -6 0 -11 5 -11 10 0 6 2 10 4 10 3 0 8 -4 11 -10z m-1426 -75 c0
-5 -4 -3 -9 5 -5 8 -9 22 -9 30 0 16 17 -16 18 -35z m-234 25 c3 -5 1 -10 -4
-10 -6 0 -11 5 -11 10 0 6 2 10 4 10 3 0 8 -4 11 -10z m165 -4 c0 -2 -7 -9
-15 -16 -13 -11 -14 -10 -9 4 5 14 24 23 24 12z m1540 -6 c0 -5 -5 -10 -11
-10 -5 0 -7 5 -4 10 3 6 8 10 11 10 2 0 4 -4 4 -10z m341 -33 c-1 -12 -15 -9
-19 4 -3 6 1 10 8 8 6 -3 11 -8 11 -12z m1422 -13 c24 -9 22 -33 -3 -27 -17 4
-19 1 -16 -29 2 -19 6 -40 10 -46 3 -6 2 -13 -4 -17 -5 -3 -10 0 -10 8 0 8
-13 20 -30 27 -29 12 -44 38 -16 27 10 -4 13 -1 9 8 -3 8 -9 13 -13 10 -5 -3
-11 -1 -15 5 -3 5 1 10 9 10 9 0 16 6 16 14 0 16 19 27 35 20 6 -2 18 -7 28
-10z m-3478 -35 c-4 -5 -12 -9 -18 -8 -9 0 -8 2 1 6 6 2 9 10 6 15 -4 7 -2 8
5 4 6 -4 9 -12 6 -17z m95 11 c0 -5 -5 -10 -11 -10 -5 0 -7 5 -4 10 3 6 8 10
11 10 2 0 4 -4 4 -10z m1979 3 c0 -5 -4 -17 -9 -28 -8 -18 -9 -17 -9 8 -1 15
4 27 9 27 6 0 10 -3 9 -7z m-2139 -64 c0 -16 -5 -29 -11 -29 -7 0 -18 -8 -25
-17 -12 -17 -13 -17 -14 -1 0 9 5 20 10 23 6 4 10 12 9 18 -4 32 2 46 16 41 9
-4 15 -19 15 -35z m215 32 c3 -5 1 -12 -5 -16 -5 -3 -10 1 -10 9 0 18 6 21 15
7z m815 -17 c0 -8 -5 -12 -10 -9 -6 4 -8 11 -5 16 9 14 15 11 15 -7z m66 -77
c-4 -48 -10 -53 -28 -25 -9 15 -13 39 -10 67 l4 44 19 -24 c12 -16 17 -36 15
-62z m2294 53 c-6 -11 -17 -20 -25 -20 -12 0 -12 4 2 20 10 11 21 20 26 20 4
0 3 -9 -3 -20z m60 10 c13 -8 13 -10 -2 -10 -9 0 -20 5 -23 10 -8 13 5 13 25
0z m-3229 -13 c-6 -8 -7 -18 -3 -22 4 -5 2 -5 -5 -1 -14 8 -6 36 9 36 7 0 6
-5 -1 -13z m2089 4 c0 -12 -20 -25 -27 -18 -7 7 6 27 18 27 5 0 9 -4 9 -9z
m188 -8 c6 -19 -25 -16 -32 3 -4 11 -1 14 11 12 9 -2 18 -9 21 -15z m-2218
-14 c0 -5 -4 -9 -10 -9 -5 0 -10 7 -10 16 0 8 5 12 10 9 6 -3 10 -10 10 -16z
m760 12 c0 -5 -7 -14 -15 -21 -16 -14 -18 -10 -9 14 6 17 24 22 24 7z m2195
-2 c11 -16 1 -19 -13 -3 -7 8 -8 14 -3 14 5 0 13 -5 16 -11z m-2425 -41 c0 -9
-16 -10 -47 -2 -26 7 -31 34 -7 34 8 0 12 -4 9 -10 -3 -6 1 -7 9 -4 9 3 13 11
10 18 -3 6 2 2 10 -8 9 -11 16 -23 16 -28z m2640 21 c0 -11 -4 -17 -10 -14 -5
3 -10 13 -10 21 0 8 5 14 10 14 6 0 10 -9 10 -21z m-3650 -22 c0 -5 -4 -5 -10
-2 -5 3 -10 14 -10 23 0 15 2 15 10 2 5 -8 10 -19 10 -23z m2045 23 c-3 -5
-11 -10 -16 -10 -6 0 -7 5 -4 10 3 6 11 10 16 10 6 0 7 -4 4 -10z m-1119 -25
c-3 -8 3 -19 12 -25 12 -8 12 -10 2 -7 -36 10 -64 16 -52 11 6 -3 12 -13 12
-21 0 -13 -2 -13 -17 -2 -15 12 -16 12 -10 -3 4 -12 2 -15 -7 -12 -24 9 -6 45
25 51 16 3 29 9 29 14 0 5 3 9 6 9 3 0 4 -7 0 -15z m494 5 c0 -5 -7 -10 -16
-10 -8 0 -12 5 -9 10 3 6 10 10 16 10 5 0 9 -4 9 -10z m-825 -10 c3 -5 1 -10
-4 -10 -6 0 -11 5 -11 10 0 6 2 10 4 10 3 0 8 -4 11 -10z m3161 2 c6 -4 9 -14
5 -24 -5 -14 -9 -13 -24 8 -18 24 -7 33 19 16z m-2701 -22 c-16 -10 -32 -17
-35 -14 -7 8 31 34 49 34 10 0 4 -8 -14 -20z m1743 -2 c-4 -27 -28 -36 -28
-10 0 20 8 32 22 32 5 0 8 -10 6 -22z m-294 -25 c-15 -24 -33 -27 -41 -7 -8
21 26 49 41 34 7 -7 7 -16 0 -27z m-1998 15 c-6 -26 -18 -48 -28 -48 -6 0 -5
6 2 15 7 8 9 15 5 15 -4 0 -2 7 5 15 15 18 19 19 16 3z m969 2 c-3 -5 -11 -10
-16 -10 -6 0 -7 5 -4 10 3 6 11 10 16 10 6 0 7 -4 4 -10z m2245 -11 c0 -18 -2
-19 -15 -9 -12 10 -15 10 -15 -4 0 -22 -13 -20 -36 5 -19 21 -19 22 1 16 11
-4 27 -2 35 3 23 15 30 12 30 -11z m-1560 -10 c0 -5 -4 -9 -10 -9 -5 0 -10 7
-10 16 0 8 5 12 10 9 6 -3 10 -10 10 -16z m-1220 3 c0 -5 -7 -9 -15 -9 -8 0
-12 4 -9 9 3 4 9 8 15 8 5 0 9 -4 9 -8z m2680 -13 c0 -11 -4 -17 -10 -14 -5 3
-10 13 -10 21 0 8 5 14 10 14 6 0 10 -9 10 -21z m-820 -7 c0 -4 -5 -13 -12
-20 -9 -9 -9 -12 1 -12 7 0 9 -5 5 -12 -4 -7 -3 -8 5 -4 6 4 9 12 6 17 -4 5 4
9 17 9 14 0 19 -3 11 -8 -7 -4 -9 -13 -4 -21 5 -7 14 -10 20 -7 6 4 11 2 11
-4 0 -6 10 -10 23 -9 30 3 57 -10 57 -27 0 -8 4 -14 10 -14 5 0 16 -13 25 -30
9 -16 13 -30 9 -30 -4 0 -1 -7 6 -15 7 -8 23 -15 37 -15 13 0 21 -4 18 -10 -3
-6 1 -7 9 -4 10 4 18 -1 22 -10 8 -20 6 -21 -25 -31 -17 -5 -21 -4 -16 5 6 9
3 9 -13 1 -11 -6 -28 -8 -36 -5 -11 4 -16 1 -16 -10 0 -9 6 -16 13 -17 9 0 9
-2 0 -5 -7 -3 -10 -11 -7 -18 3 -8 -1 -16 -9 -19 -8 -3 -14 -16 -13 -29 1 -19
6 -22 29 -20 15 1 37 -2 48 -9 16 -8 23 -8 29 1 4 7 23 10 48 7 23 -2 46 1 51
6 6 6 13 8 17 5 11 -12 -6 -43 -31 -55 -21 -9 -25 -9 -26 5 -1 15 -2 15 -6 0
-2 -10 -10 -15 -19 -11 -10 4 -12 0 -8 -11 4 -11 -3 -19 -23 -27 -15 -6 -38
-16 -50 -22 -42 -19 -150 -4 -135 19 4 7 23 19 42 28 26 12 29 15 10 12 -15
-3 -34 3 -47 14 -27 21 -29 30 -8 30 20 0 30 27 16 44 -6 7 -8 15 -5 19 3 3
-3 3 -15 0 -13 -3 -21 -1 -21 6 0 7 -4 9 -10 6 -5 -3 -10 -2 -10 4 0 5 6 12
13 14 6 3 -4 6 -24 6 -41 1 -53 9 -39 25 5 7 5 17 0 26 -8 12 -10 10 -10 -7 0
-13 -6 -24 -12 -24 -54 -6 -74 -3 -85 10 -11 14 -12 14 -13 1 0 -23 -39 -22
-69 2 -25 20 -25 20 -3 13 20 -6 23 -4 20 12 -2 13 -12 18 -36 18 -17 0 -32 4
-32 10 0 5 -4 4 -9 -4 -8 -12 -12 -12 -25 -2 -9 7 -26 11 -38 8 -13 -3 -34 0
-48 8 -16 9 -32 10 -48 4 -32 -12 -25 11 9 28 19 10 27 9 40 -2 18 -17 29 -10
29 17 0 30 21 56 42 50 18 -4 18 -5 1 -17 -30 -22 -7 -29 37 -11 60 24 89 21
101 -10 11 -32 22 -25 25 16 1 22 -2 27 -13 23 -12 -5 -11 -1 3 15 10 12 29
22 41 22 13 0 29 10 39 24 13 22 24 27 67 35 4 0 7 -3 7 -7z m955 -22 c-6 -51
-16 -70 -36 -70 -10 0 -19 5 -19 11 0 5 5 7 10 4 6 -3 10 1 10 9 0 11 -8 15
-27 14 -16 -2 -28 2 -28 7 0 6 10 9 23 7 17 -2 22 1 20 14 -2 12 6 20 22 25
14 4 26 7 27 8 1 1 0 -12 -2 -29z m-2835 10 c0 -5 -4 -10 -10 -10 -5 0 -10 5
-10 10 0 6 5 10 10 10 6 0 10 -4 10 -10z m46 -25 c-7 -28 -29 -29 -34 -2 -2
12 1 15 12 11 11 -4 16 0 16 12 0 9 3 15 6 11 4 -3 3 -18 0 -32z m2268 20 c3
-8 1 -15 -4 -15 -6 0 -10 7 -10 15 0 8 2 15 4 15 2 0 6 -7 10 -15z m-2224 -5
c0 -5 -7 -10 -16 -10 -8 0 -12 5 -9 10 3 6 10 10 16 10 5 0 9 -4 9 -10z m37 4
c-3 -3 -12 -4 -19 -1 -8 3 -5 6 6 6 11 1 17 -2 13 -5z m2753 -24 c0 -11 -4
-20 -9 -20 -14 0 -23 18 -16 30 10 17 25 11 25 -10z m-1429 -3 c-1 -4 -1 -15
-1 -24 0 -15 -2 -16 -10 -3 -13 20 -13 43 1 38 6 -2 10 -7 10 -11z m179 -8 c0
-5 -7 -9 -15 -9 -15 0 -20 12 -9 23 8 8 24 -1 24 -14z m-1915 1 c-3 -5 -12 -7
-20 -3 -21 7 -19 13 6 13 11 0 18 -4 14 -10z m965 6 c0 -3 -4 -8 -10 -11 -5
-3 -10 -1 -10 4 0 6 5 11 10 11 6 0 10 -2 10 -4z m1355 -6 c-3 -5 -12 -7 -20
-3 -21 7 -19 13 6 13 11 0 18 -4 14 -10z m-1495 -20 c0 -5 -7 -7 -15 -4 -8 4
-15 8 -15 10 0 2 7 4 15 4 8 0 15 -4 15 -10z m105 1 c3 -6 -3 -15 -14 -20 -28
-16 -33 -14 -21 9 12 22 25 26 35 11z m589 -11 c-10 -4 -21 -6 -24 -3 -8 7 24
22 34 16 5 -4 1 -10 -10 -13z m-1466 -8 c2 -7 -2 -10 -12 -6 -9 3 -16 11 -16
16 0 13 23 5 28 -10z m1612 8 c0 -5 -4 -10 -10 -10 -5 0 -10 5 -10 10 0 6 5
10 10 10 6 0 10 -4 10 -10z m-795 -30 c3 -5 1 -10 -4 -10 -6 0 -11 5 -11 10 0
6 2 10 4 10 3 0 8 -4 11 -10z m803 -12 c-3 -7 -13 -15 -24 -17 -16 -3 -17 -1
-5 13 16 19 34 21 29 4z m-1868 -8 c0 -5 -2 -10 -4 -10 -3 0 -8 5 -11 10 -3 6
-1 10 4 10 6 0 11 -4 11 -10z m1120 -18 c7 2 14 -5 15 -14 2 -13 -3 -18 -19
-18 -16 0 -22 6 -24 28 -1 17 1 22 7 14 4 -7 14 -12 21 -10z m262 -1 c-2 -9 4
-12 18 -8 15 4 20 0 20 -14 0 -28 -23 -33 -59 -14 -30 15 -39 34 -24 49 12 12
48 1 45 -13z m-162 -6 c0 -8 -4 -15 -10 -15 -5 0 -10 7 -10 15 0 8 5 15 10 15
6 0 10 -7 10 -15z m-412 -40 c-8 -18 -19 -25 -40 -25 -37 0 -35 11 5 31 45 23
48 22 35 -6z m319 -1 c22 -6 23 -8 9 -16 -11 -6 -22 -6 -30 1 -7 6 -16 8 -19
5 -3 -3 -11 -3 -16 1 -16 9 -2 27 16 21 8 -4 26 -9 40 -12z m853 -23 c0 -24 3
-28 20 -24 18 5 20 2 16 -22 -3 -16 -9 -32 -13 -36 -14 -13 -83 -28 -83 -18 0
5 5 9 10 9 21 0 9 20 -15 26 -29 7 -32 22 -9 50 15 19 15 19 9 -2 -6 -22 29
-63 42 -50 5 4 0 12 -9 17 -13 7 -14 13 -5 34 7 14 16 25 20 25 5 0 5 5 2 10
-3 6 -1 10 4 10 6 0 11 -13 11 -29z m1007 11 c-10 -10 -17 -24 -17 -30 0 -7
-4 -12 -10 -12 -5 0 -10 2 -10 5 0 13 33 55 43 55 5 0 3 -8 -6 -18z m103 8
c12 -7 11 -10 -5 -15 -11 -4 -28 -11 -37 -16 -15 -8 -18 -5 -18 16 0 19 5 25
23 25 12 0 29 -4 37 -10z m-1035 -10 c3 -6 -1 -7 -9 -4 -18 7 -21 14 -7 14 6
0 13 -4 16 -10z m-2335 -26 c15 -39 12 -49 -10 -29 -21 19 -27 55 -10 55 6 0
15 -12 20 -26z m685 -25 c13 10 55 12 53 3 -2 -11 24 -62 32 -62 8 0 6 -57 -2
-65 -3 -3 -11 1 -18 10 -10 12 -10 15 0 15 10 0 10 3 0 15 -7 9 -19 14 -26 11
-8 -3 -18 4 -24 14 -6 11 -20 20 -31 20 -12 0 -23 10 -29 25 -12 31 -20 33
-12 3 5 -21 4 -22 -12 -9 -9 8 -14 21 -11 29 3 10 0 12 -10 9 -18 -8 -32 13
-15 23 8 5 29 -3 54 -20 22 -16 45 -25 51 -21z m975 36 c0 -8 -7 -15 -15 -15
-8 0 -15 7 -15 15 0 8 7 15 15 15 8 0 15 -7 15 -15z m-498 -12 c7 2 10 2 6 0
-16 -9 -7 -20 25 -32 27 -11 33 -18 29 -36 -5 -30 -43 -37 -73 -14 -13 10 -29
19 -35 19 -7 0 -14 8 -17 18 -2 9 -8 26 -13 36 -6 16 -4 18 9 13 9 -3 17 -2
17 4 0 6 7 6 19 -1 11 -5 26 -8 33 -7z m268 -4 c0 -5 -7 -9 -15 -9 -9 0 -12 6
-9 15 6 15 24 11 24 -6z m297 7 c7 -6 -11 -45 -22 -50 -10 -3 -12 0 -8 11 4
10 2 14 -5 9 -14 -8 -25 11 -18 30 4 11 13 13 28 8 13 -3 24 -7 25 -8z m51 -5
c3 -8 -1 -12 -9 -9 -7 2 -15 10 -17 17 -3 8 1 12 9 9 7 -2 15 -10 17 -17z
m-783 -1 c-4 -6 -1 -18 6 -26 11 -13 9 -19 -11 -34 -23 -18 -24 -17 -43 6 -29
37 -18 52 46 63 5 0 5 -4 2 -9z m2405 6 c0 -2 -7 -6 -15 -10 -8 -3 -15 -1 -15
4 0 6 7 10 15 10 8 0 15 -2 15 -4z m-2510 -38 c0 -5 8 -8 17 -8 13 0 14 -3 6
-11 -6 -6 -9 -18 -6 -25 8 -22 -34 -17 -62 8 -27 23 -31 38 -14 55 11 11 59
-4 59 -19z m486 5 c-10 -10 -19 5 -10 18 6 11 8 11 12 0 2 -7 1 -15 -2 -18z
m2183 -40 c1 -8 -10 -13 -26 -13 -25 1 -26 2 -10 14 9 7 17 24 18 37 l1 24 8
-25 c4 -14 8 -31 9 -37z m-299 31 c0 -8 -4 -12 -10 -9 -5 3 -10 10 -10 16 0 5
5 9 10 9 6 0 10 -7 10 -16z m111 6 c5 0 9 -8 8 -17 0 -10 -3 -13 -5 -7 -3 7
-14 10 -24 7 -14 -4 -20 0 -20 12 0 12 5 15 16 11 9 -3 20 -6 25 -6z m-3357
-36 c3 -8 2 -12 -4 -9 -6 3 -10 10 -10 16 0 14 7 11 14 -7z m2371 6 c3 -5 1
-10 -4 -10 -6 0 -11 5 -11 10 0 6 2 10 4 10 3 0 8 -4 11 -10z m828 -14 c4 -6
10 -23 14 -39 10 -48 27 -45 21 4 -3 24 -4 38 -1 31 3 -9 9 -10 17 -3 20 17
76 -2 76 -25 0 -8 7 -14 15 -14 19 0 20 -39 0 -46 -15 -6 -45 17 -45 35 0 13
-10 14 -28 2 -11 -7 -11 -9 2 -14 20 -8 10 -37 -13 -38 -13 0 -13 -1 -1 -6 30
-10 85 -36 90 -42 3 -4 20 1 39 10 l35 16 -24 13 c-19 10 -24 10 -32 -4 -9
-16 -38 -23 -38 -9 0 4 16 21 36 40 27 24 40 30 52 24 12 -7 23 -3 39 16 22
22 24 23 40 8 12 -12 12 -16 2 -14 -15 4 -79 -31 -79 -42 0 -18 13 -38 22 -33
5 3 16 3 25 0 14 -6 13 -10 -7 -31 -13 -13 -27 -22 -31 -19 -5 3 -6 -1 -3 -9
3 -8 0 -18 -6 -22 -9 -6 -9 -10 1 -16 10 -6 11 -9 2 -9 -7 0 -13 -4 -13 -10 0
-5 7 -10 15 -10 8 0 15 7 15 16 0 8 5 12 11 9 5 -4 18 1 27 12 21 23 40 27 58
12 11 -9 14 -8 14 1 0 8 2 11 5 8 3 -2 -1 -16 -7 -30 -11 -22 -17 -26 -42 -21
-28 6 -29 5 -22 -27 3 -19 14 -45 22 -59 l17 -24 14 26 c7 15 19 27 25 27 6 0
6 -6 -3 -16 -10 -13 -10 -17 2 -25 11 -7 10 -10 -8 -15 -13 -4 -21 -10 -18
-14 3 -5 -8 -12 -23 -18 -18 -6 -34 -22 -42 -41 -12 -31 -61 -61 -99 -61 -9 0
-27 -6 -41 -13 -30 -15 -36 -15 -73 3 -18 9 -31 10 -35 4 -4 -6 -18 -18 -32
-28 l-25 -18 25 7 c21 5 22 4 8 -5 -21 -13 -52 0 -62 25 -8 21 -24 10 -37 -23
-7 -19 -13 -22 -21 -14 -19 19 -25 14 -24 -18 1 -16 7 -32 14 -35 7 -3 11 -9
8 -14 -3 -5 5 -11 19 -13 13 -3 26 0 28 6 3 6 8 3 12 -7 5 -12 2 -24 -9 -35
-11 -11 -16 -12 -16 -4 0 7 -5 10 -11 6 -8 -4 -8 -9 0 -17 16 -16 14 -46 -4
-63 -13 -14 -16 -13 -22 3 -4 10 -9 20 -12 23 -14 12 -31 51 -31 70 0 11 -4
20 -8 20 -16 0 -21 -12 -13 -34 17 -44 21 -76 11 -76 -5 0 -10 9 -10 20 0 11
-7 20 -16 20 -11 0 -14 -6 -9 -20 7 -21 -9 -28 -20 -10 -4 6 -15 8 -25 5 -10
-3 -21 -2 -24 4 -7 11 -87 53 -92 48 -2 -2 5 -12 16 -22 21 -19 27 -55 10 -55
-6 0 -5 -8 2 -20 11 -17 24 -20 83 -20 67 0 71 -1 88 -29 22 -37 21 -41 -2
-41 -28 0 -35 -17 -11 -25 11 -3 20 -11 20 -16 0 -5 7 -9 15 -9 22 0 31 -48
13 -67 -13 -12 -23 -13 -54 -4 -49 14 -174 14 -174 1 0 -5 10 -10 23 -10 16 0
18 -3 9 -9 -9 -5 5 -10 40 -14 29 -2 55 -1 56 4 6 16 38 10 57 -11 18 -20 17
-20 -7 -20 -14 0 -39 -7 -54 -15 -16 -8 -37 -15 -48 -15 -10 0 -27 -11 -38
-25 -11 -14 -30 -25 -44 -25 -25 0 -33 15 -11 23 7 3 5 6 -5 6 -10 1 -18 -5
-18 -13 0 -9 -8 -12 -24 -9 -13 3 -27 0 -30 -6 -5 -7 5 -11 27 -11 18 0 36 -3
40 -6 8 -8 -3 -35 -12 -29 -11 6 -51 -24 -51 -38 0 -15 -39 -58 -67 -74 -29
-16 -143 -27 -143 -13 0 12 -69 3 -86 -11 -7 -6 -22 -12 -34 -14 -16 -3 -20 0
-16 13 7 20 -10 50 -21 39 -4 -5 -1 -12 7 -17 9 -6 10 -10 3 -10 -6 0 -19 7
-28 16 -13 14 -18 14 -32 2 -14 -11 -16 -11 -8 1 6 11 3 13 -13 9 -13 -4 -23
0 -26 9 -4 9 -13 12 -26 8 -11 -4 -20 -2 -20 4 0 6 9 12 20 12 33 2 38 4 46
12 4 4 15 7 25 7 10 0 42 5 71 11 37 8 48 14 35 18 -38 14 7 31 69 28 46 -2
65 1 86 16 15 12 35 17 47 14 12 -3 21 -1 21 4 0 5 -20 9 -44 9 -25 0 -48 5
-52 11 -3 6 -17 9 -30 6 -14 -2 -27 -1 -29 3 -3 5 -36 11 -74 15 -38 4 -81 13
-95 20 -14 8 -28 10 -31 5 -6 -10 -116 -1 -130 11 -5 5 -38 8 -75 8 -62 -1
-63 -2 -25 -10 22 -5 67 -13 100 -18 33 -5 73 -12 88 -16 16 -4 72 -13 125
-21 94 -12 90 -12 -113 -7 -360 9 -398 9 -387 5 7 -2 12 -8 12 -12 0 -5 -34
-8 -75 -7 -41 1 -75 -2 -75 -6 0 -6 212 -11 398 -9 17 0 32 -3 32 -8 0 -11
-65 -24 -79 -16 -5 3 -16 0 -24 -9 -8 -8 -34 -18 -58 -21 -38 -6 -42 -5 -36
10 6 16 2 17 -44 12 -28 -4 -60 -11 -70 -17 -12 -6 -26 -6 -36 -1 -10 5 -91
10 -181 11 -89 1 -174 6 -187 11 -20 7 -25 6 -25 -5 0 -11 -13 -15 -55 -15
-30 0 -55 -4 -55 -10 0 -5 -13 -10 -30 -10 -34 0 -40 15 -10 25 11 3 20 10 20
15 0 5 7 7 15 4 8 -4 15 -1 15 4 0 6 -8 13 -17 15 -12 3 -9 5 8 6 14 0 30 6
36 12 6 6 41 10 79 10 69 0 92 -3 195 -21 72 -13 89 -7 80 28 -5 16 -3 42 5
65 12 32 11 37 -3 37 -9 0 -13 -6 -10 -14 3 -8 -1 -17 -8 -20 -9 -3 -12 -13
-9 -23 4 -13 3 -14 -4 -5 -5 7 -7 24 -4 38 2 14 0 24 -7 24 -6 0 -11 -7 -11
-15 0 -8 -7 -15 -16 -15 -10 0 -14 6 -10 15 4 10 -1 15 -15 15 -11 0 -18 4
-14 9 3 6 -15 3 -41 -6 -33 -11 -42 -18 -33 -24 19 -12 32 -11 24 1 -9 15 2
12 30 -6 15 -10 25 -12 25 -5 0 6 9 3 19 -6 24 -20 18 -33 -12 -32 -20 1 -20
2 -3 6 17 4 14 8 -14 19 -22 10 -36 11 -40 4 -4 -6 -14 -4 -29 6 -15 11 -19
20 -13 26 11 11 5 38 -7 38 -4 0 -8 -6 -9 -12 -3 -33 -10 -52 -20 -56 -7 -2
-12 1 -12 8 0 6 -3 9 -7 7 -5 -3 -14 1 -20 9 -7 7 -9 15 -4 19 5 3 12 1 16 -5
3 -5 13 -10 22 -10 12 0 13 3 4 13 -6 8 -7 17 -3 22 4 4 -10 5 -30 2 -25 -4
-40 -1 -49 9 -12 15 -3 19 30 14 9 -1 12 4 8 14 -4 9 -2 16 3 16 6 0 10 -6 10
-12 0 -8 14 -13 33 -14 67 -2 162 -17 175 -27 21 -17 92 -17 92 0 0 8 -6 13
-12 12 -33 -4 -47 2 -42 16 4 10 13 13 26 9 11 -3 35 -6 54 -6 19 0 34 -4 34
-8 0 -11 60 -18 66 -8 3 5 10 6 15 3 5 -4 9 -1 9 4 0 6 -3 11 -7 11 -5 0 -14
4 -22 9 -10 7 -11 13 -1 30 10 20 10 21 -8 10 -11 -7 -18 -17 -16 -23 2 -6
-11 -12 -30 -13 -32 -1 -33 0 -18 16 9 9 19 14 22 9 3 -4 14 2 24 14 13 15 15
23 6 28 -8 5 -7 9 5 13 9 4 18 1 21 -8 4 -9 18 -14 33 -14 15 1 19 3 9 6 -11
3 -15 10 -11 20 4 11 2 14 -5 9 -7 -4 -12 -3 -12 3 0 5 4 12 9 15 5 3 7 16 4
27 -5 16 -2 20 8 17 8 -3 13 -11 11 -18 -2 -8 4 -11 18 -7 22 6 28 -8 8 -17
-7 -3 -4 -5 7 -3 11 1 25 -1 30 -5 6 -4 17 -3 25 2 11 7 8 11 -13 19 -15 6
-27 15 -27 20 0 16 18 22 37 12 10 -5 29 -14 43 -19 25 -11 25 -11 2 -11 -13
-1 -20 -5 -17 -11 8 -13 43 -3 63 16 7 8 21 14 30 14 13 0 11 -5 -8 -20 l-25
-20 28 0 c16 0 35 -7 44 -15 12 -12 18 -13 29 -4 8 6 26 8 41 5 21 -5 24 -4
13 4 -8 5 -10 10 -5 11 6 0 19 3 30 5 11 3 27 6 37 8 9 1 23 7 30 14 8 6 25
16 39 21 23 9 23 10 -7 10 -39 1 -57 31 -19 31 13 0 27 5 31 11 4 8 9 7 16 -2
8 -11 9 -10 4 4 -6 18 9 24 19 7 3 -5 13 -10 21 -10 8 0 12 5 9 10 -3 6 -1 10
6 10 7 0 9 3 5 7 -9 10 -37 13 -31 4 2 -4 -9 -8 -25 -8 -17 0 -30 5 -30 10 0
6 -8 3 -18 -6 -10 -10 -24 -17 -30 -17 -20 0 -13 20 9 28 18 7 16 9 -15 22
-35 13 -48 30 -24 30 9 0 9 3 1 11 -6 6 -9 18 -6 25 3 7 -2 21 -12 30 -9 9
-13 19 -10 23 4 3 13 -2 20 -13 15 -20 35 -14 36 12 0 14 2 13 8 -3 6 -13 4
-22 -5 -25 -10 -4 -10 -8 0 -23 12 -16 15 -15 29 15 9 18 17 26 17 17 0 -18
34 -52 43 -43 3 3 3 12 1 19 -6 16 19 22 74 19 23 -1 42 2 42 7 0 5 5 9 11 9
5 0 8 -4 5 -9 -3 -5 10 -11 29 -13 19 -2 35 -1 35 3 0 17 42 20 65 5 31 -20
71 -21 79 -1 4 12 18 15 56 14 33 -2 55 3 67 13 10 8 26 18 36 21 18 7 24 27
6 27 -5 0 -7 5 -3 11 3 6 0 15 -7 20 -11 7 -10 9 5 9 11 0 16 3 12 7 -4 4 -15
8 -24 8 -26 0 -20 35 8 53 l25 16 -20 -23 -20 -24 23 7 c14 5 22 3 22 -4 0 -6
5 -8 11 -4 8 4 7 9 -2 15 -10 6 -9 10 6 15 29 11 32 19 28 77 -2 36 0 47 7 37
8 -13 10 -12 10 3 0 9 4 17 9 17 8 0 18 23 27 63 3 13 -3 17 -26 17 -17 0 -30
3 -30 7 0 16 35 43 56 43 17 0 25 7 30 25 8 32 23 33 17 1 -4 -18 0 -26 16
-31 25 -8 28 -35 5 -35 -11 0 -15 -6 -11 -20 3 -11 -3 -30 -15 -45 -12 -16
-17 -32 -13 -45 7 -23 21 -26 28 -7 4 8 6 7 6 -3 1 -8 -9 -20 -20 -25 -12 -6
-28 -26 -36 -45 -15 -36 -12 -35 27 15 13 17 20 22 17 13 -4 -10 -3 -18 2 -18
10 0 57 87 65 122 3 15 20 42 36 60 19 20 28 39 24 48 -4 8 -9 25 -11 38 -4
14 -13 22 -25 22 -17 0 -18 3 -8 15 10 13 9 15 -9 15 -30 0 -53 24 -39 38 13
13 59 5 71 -12z m227 9 c0 -8 -7 -15 -15 -15 -16 0 -20 12 -8 23 11 12 23 8
23 -8z m-2913 -22 c-8 -7 -37 9 -31 19 3 5 12 4 20 -3 8 -6 13 -14 11 -16z
m938 -23 c-10 -17 -33 -11 -40 10 -10 32 5 44 27 21 10 -12 16 -26 13 -31z
m65 15 c0 -8 -9 -15 -20 -15 -20 0 -26 11 -13 23 12 13 33 7 33 -8z m230 0
c-7 -8 -17 -15 -22 -15 -6 0 -5 7 2 15 7 8 17 15 22 15 6 0 5 -7 -2 -15z
m-482 -1 c12 -4 22 -12 22 -19 0 -7 5 -15 11 -17 16 -5 1 -48 -17 -48 -8 0
-14 4 -14 9 0 4 -15 12 -32 17 -38 11 -54 46 -17 37 18 -5 21 -3 16 10 -7 19
-3 20 31 11z m1602 2 c0 -3 -4 -8 -10 -11 -5 -3 -10 -1 -10 4 0 6 5 11 10 11
6 0 10 -2 10 -4z m-2705 -57 c-10 -15 -35 9 -35 34 0 21 0 21 21 -1 11 -12 17
-27 14 -33z m3265 47 c0 -3 -4 -8 -10 -11 -5 -3 -10 -1 -10 4 0 6 5 11 10 11
6 0 10 -2 10 -4z m-3350 -27 c0 -6 -4 -7 -10 -4 -5 3 -10 11 -10 16 0 6 5 7
10 4 6 -3 10 -11 10 -16z m464 -4 c20 -14 43 -25 49 -25 7 0 17 -4 23 -9 11
-11 82 -51 90 -51 3 0 3 4 -1 9 -3 5 5 13 17 17 13 4 28 14 34 22 7 10 17 13
30 7 15 -6 16 -8 4 -13 -8 -3 -20 -11 -28 -18 -7 -7 -20 -10 -30 -7 -13 5 -14
3 -6 -6 9 -10 17 -10 33 -2 12 7 21 8 21 4 0 -4 5 -1 10 7 6 10 10 11 10 3 0
-7 4 -13 10 -13 5 0 7 8 4 18 -2 9 1 6 8 -6 9 -18 18 -23 39 -20 18 3 25 0 22
-8 -8 -22 27 -24 47 -2 16 18 22 19 35 8 14 -12 18 -11 26 1 7 11 9 9 9 -8 0
-14 6 -23 15 -23 9 0 18 -7 21 -15 4 -8 11 -15 18 -15 6 0 17 -4 25 -9 12 -8
12 -12 2 -25 -8 -9 -9 -16 -3 -16 6 0 12 4 14 9 3 11 39 20 103 27 l40 5 -26
-18 c-41 -29 -69 -62 -69 -81 0 -26 -10 -33 -30 -22 -19 10 -47 -11 -36 -28 3
-4 -9 -6 -25 -4 -29 4 -30 5 -12 25 17 19 17 20 1 14 -15 -5 -17 -1 -14 24 3
22 0 27 -7 20 -18 -18 -27 -13 -27 14 0 14 -4 25 -8 25 -14 0 -7 41 8 50 8 5
11 12 7 16 -3 4 -14 1 -23 -7 -10 -8 -27 -13 -38 -11 -16 2 -18 1 -7 -7 12 -8
12 -12 -2 -25 -9 -9 -14 -23 -11 -31 7 -17 -21 -21 -31 -5 -9 14 -25 2 -25
-18 0 -11 -8 -18 -20 -18 -23 0 -23 1 -10 26 7 14 5 24 -11 42 -11 12 -18 18
-15 11 4 -6 1 -15 -5 -19 -7 -4 -10 -3 -7 2 3 5 -1 23 -8 39 -10 23 -13 25
-14 10 0 -11 -4 -16 -8 -10 -14 20 -74 47 -93 42 -14 -4 -19 0 -19 14 0 12 -7
19 -19 19 -10 0 -24 6 -30 14 -7 8 -27 17 -46 20 -19 4 -35 13 -35 20 0 7 -10
18 -22 24 -16 7 -18 11 -7 11 9 1 33 -10 53 -24z m435 6 c12 -12 17 -27 14
-40 -5 -19 -6 -19 -54 6 -27 15 -49 31 -49 36 0 5 6 7 13 4 6 -2 21 -1 32 4
11 4 21 8 23 8 1 1 11 -8 21 -18z m796 9 c3 -5 -1 -10 -9 -10 -9 0 -16 5 -16
10 0 6 4 10 9 10 6 0 13 -4 16 -10z m-1562 -14 c17 -13 23 -47 10 -59 -11 -12
-43 25 -43 50 0 26 7 28 33 9z m367 4 c0 -5 -4 -10 -10 -10 -5 0 -10 5 -10 10
0 6 5 10 10 10 6 0 10 -4 10 -10z m1350 -6 c0 -8 -4 -12 -10 -9 -5 3 -10 10
-10 16 0 5 5 9 10 9 6 0 10 -7 10 -16z m1115 6 c-3 -5 -12 -10 -18 -10 -7 0
-6 4 3 10 19 12 23 12 15 0z m-3105 -40 c11 -22 16 -40 11 -40 -12 0 -20 13
-31 50 -12 41 -4 37 20 -10z m1875 30 c3 -5 1 -10 -4 -10 -6 0 -11 5 -11 10 0
6 2 10 4 10 3 0 8 -4 11 -10z m68 -11 c-3 -10 -12 -24 -19 -30 -12 -10 -13 -9
-8 5 4 11 1 16 -10 16 -16 0 -21 11 -11 22 3 3 16 6 29 6 18 0 22 -5 19 -19z
m535 -10 c-2 -6 -8 -10 -13 -10 -5 0 -11 4 -13 10 -2 6 4 11 13 11 9 0 15 -5
13 -11z m-1173 -19 c8 0 17 -5 21 -12 5 -8 2 -9 -9 -5 -10 3 -17 3 -17 -2 0
-5 -10 -12 -22 -16 -33 -11 -38 -11 -38 0 0 10 4 11 36 14 11 1 14 8 10 24 -3
12 -3 16 0 10 3 -7 12 -13 19 -13z m196 -24 c16 -18 9 -27 -11 -16 -18 10 -20
7 -21 -22 -1 -18 -3 -25 -6 -15 -3 13 -12 16 -34 12 -34 -6 -69 9 -69 30 0 8
9 15 20 15 11 0 20 -6 20 -14 0 -8 4 -18 10 -21 6 -4 7 1 3 12 -6 15 -4 16 8
6 11 -9 20 -8 39 7 21 16 22 20 7 20 -10 0 -15 5 -12 10 4 6 11 8 16 5 5 -4
10 0 10 7 1 7 3 4 6 -7 3 -11 9 -24 14 -29z m-481 9 c0 -2 -9 -3 -20 -2 -11 1
-20 7 -20 14 0 11 5 11 20 3 11 -6 20 -13 20 -15z m1570 7 c0 -13 -12 -22 -22
-16 -10 6 -1 24 13 24 5 0 9 -4 9 -8z m-2246 -8 c9 -3 16 -11 16 -16 0 -6 -7
-8 -15 -4 -8 3 -15 1 -15 -5 0 -6 -5 -7 -12 -3 -9 6 -9 9 0 12 7 2 10 8 6 13
-6 11 -2 11 20 3z m117 -17 c-1 -12 -15 -9 -19 4 -3 6 1 10 8 8 6 -3 11 -8 11
-12z m1519 -11 c0 -2 -8 -10 -17 -17 -16 -13 -17 -12 -4 4 13 16 21 21 21 13z
m672 -21 c-5 -27 -42 -36 -42 -10 0 9 -9 15 -22 15 -19 0 -20 2 -8 10 8 5 29
10 46 10 28 0 31 -3 26 -25z m-2589 -47 c-2 -4 3 -5 11 -2 9 3 19 -5 28 -23 8
-15 20 -27 27 -25 8 1 11 -6 9 -20 -2 -15 -10 -23 -23 -23 -15 0 -30 20 -59
75 -33 63 -35 71 -14 50 13 -14 23 -28 21 -32z m342 43 c3 -5 1 -12 -5 -16 -5
-3 -10 1 -10 9 0 18 6 21 15 7z m1460 -7 c-39 -30 -52 -34 -65 -20 -14 18 12
35 55 35 29 0 29 0 10 -15z m135 -4 c0 -5 -4 -10 -10 -10 -5 0 -10 5 -10 10 0
6 5 10 10 10 6 0 10 -4 10 -10z m595 -8 c-3 -3 -11 0 -18 7 -9 10 -8 11 6 5
10 -3 15 -9 12 -12z m-2279 -19 c-7 -7 -26 7 -26 19 0 6 6 6 15 -2 9 -7 13
-15 11 -17z m964 22 c0 -2 -9 -9 -20 -15 -16 -9 -18 -8 -14 5 5 13 34 22 34
10z m440 -15 c0 -5 -7 -10 -15 -10 -8 0 -15 5 -15 10 0 6 7 10 15 10 8 0 15
-4 15 -10z m1936 -16 c-3 -8 -2 -12 4 -9 6 3 10 2 10 -4 0 -17 -23 -61 -32
-61 -13 0 -9 20 5 21 9 0 8 2 -1 6 -8 3 -27 -7 -43 -23 -16 -15 -29 -22 -29
-16 0 7 5 12 11 12 8 0 7 5 -1 15 -7 9 -10 18 -6 22 3 3 6 1 6 -5 0 -19 25 -3
44 28 18 31 43 42 32 14z m-1006 -4 c-8 -5 -24 -9 -35 -9 -16 1 -16 2 5 9 35
11 48 11 30 0z m312 -21 c-9 -22 -27 -27 -28 -6 0 17 17 38 27 32 4 -3 5 -15
1 -26z m-2232 11 c0 -5 -4 -10 -10 -10 -5 0 -10 5 -10 10 0 6 5 10 10 10 6 0
10 -4 10 -10z m676 -15 c16 -14 35 -23 43 -20 8 3 22 -2 32 -11 12 -11 19 -13
19 -5 0 7 5 9 10 6 6 -3 10 0 10 8 0 8 7 20 16 28 14 11 15 10 12 -7 -2 -13 2
-19 14 -18 10 1 15 -3 12 -8 -3 -5 -12 -7 -19 -4 -7 2 -16 -1 -18 -9 -4 -8 4
-14 22 -17 36 -5 51 0 51 18 0 8 5 14 12 14 9 0 9 3 0 12 -17 17 -15 24 6 25
14 1 19 -7 20 -35 2 -20 5 -38 8 -41 8 -8 37 -10 48 -3 20 12 46 12 46 0 0 -6
-3 -9 -6 -5 -4 3 -15 -4 -26 -16 -13 -15 -21 -18 -24 -9 -3 6 -10 10 -15 7 -4
-3 -19 1 -32 10 -22 14 -29 14 -72 0 -26 -9 -53 -14 -60 -11 -7 2 -16 -3 -20
-12 -5 -13 -8 -14 -14 -3 -6 10 -17 10 -50 1 -22 -6 -41 -15 -41 -20 0 -18
-20 -10 -21 8 0 10 -3 12 -6 4 -2 -6 -9 -9 -14 -6 -6 3 -18 -4 -28 -15 -22
-26 -31 -27 -31 -3 -1 15 -2 14 -12 -3 -6 -11 -17 -25 -25 -31 -19 -16 -56 -6
-49 13 4 10 1 13 -13 8 -10 -3 -24 1 -31 10 -12 14 -9 15 18 10 19 -3 32 -1
32 5 0 5 11 10 24 10 13 0 29 7 36 15 7 8 10 15 6 15 -3 0 7 12 23 28 15 15
36 39 46 55 21 33 25 33 61 2z m1618 -2 c-1 -16 -3 -28 -4 -28 -1 0 -3 -15 -5
-32 -1 -18 1 -30 6 -27 5 3 9 1 9 -4 0 -16 -51 -11 -57 6 -4 8 1 20 11 27 10
8 12 15 6 17 -8 2 -7 12 1 36 13 39 35 43 33 5z m-2327 -5 c-3 -8 -6 -5 -6 6
-1 11 2 17 5 13 3 -3 4 -12 1 -19z m-301 -19 c12 -24 12 -30 2 -27 -7 3 -14
14 -16 26 -2 12 -7 20 -12 17 -5 -3 -11 -1 -15 5 -3 5 1 10 9 10 9 0 23 -14
32 -31z m1710 16 c8 -19 33 -19 40 -1 9 23 53 0 54 -27 0 -5 -4 -5 -10 -2 -5
3 -10 -3 -10 -14 0 -12 0 -24 -1 -28 0 -4 5 -9 12 -12 8 -2 10 2 6 12 -3 9 1
17 12 20 12 3 17 -2 17 -17 -1 -19 5 -21 74 -23 87 -2 138 9 166 35 20 19 21
19 50 -4 28 -23 28 -24 6 -24 -12 0 -30 -9 -39 -19 -9 -11 -21 -17 -26 -14 -6
3 -7 1 -3 -6 5 -8 13 -7 29 4 26 18 47 19 47 3 -1 -21 -57 -77 -85 -84 -14 -3
-28 -10 -31 -15 -3 -5 -10 -9 -15 -9 -6 0 -7 5 -4 10 3 6 2 10 -3 10 -6 0 -13
7 -16 16 -3 8 -2 12 4 9 6 -3 10 -2 10 3 0 5 12 8 28 6 15 -2 35 -1 46 2 17 6
16 7 -5 18 -13 7 -23 18 -21 24 1 7 -5 12 -14 12 -10 0 -14 -6 -10 -15 5 -13
1 -16 -19 -14 -3 0 -20 -11 -36 -25 -35 -30 -54 -33 -63 -10 -3 8 -2 13 2 10
4 -2 15 9 24 25 19 32 17 34 -13 18 -11 -6 -30 -12 -41 -14 -11 -3 -28 -11
-37 -19 -14 -13 -69 -22 -96 -16 -25 5 -62 -3 -78 -18 -14 -13 -18 -13 -15 -2
2 11 -13 14 -74 14 -57 1 -82 5 -97 18 -11 9 -21 15 -23 13 -2 -3 -2 11 0 29
4 31 3 33 -26 28 -24 -3 -29 -8 -24 -24 4 -18 3 -19 -17 -9 -29 16 -27 27 8
42 17 8 27 18 24 26 -4 11 0 12 18 4 13 -5 33 -12 44 -16 19 -6 19 -7 2 -20
-24 -17 -9 -25 51 -26 67 -2 79 7 52 36 -20 22 -21 23 -3 29 25 8 39 4 35 -11
-2 -7 4 -13 13 -13 18 0 19 12 3 28 -6 6 -8 15 -4 19 4 5 13 0 20 -9 14 -20
28 -14 19 8 -3 8 -14 14 -25 14 -11 0 -16 4 -12 11 3 6 15 9 25 6 11 -3 19 -1
19 4 0 15 30 10 36 -6z m-1284 -47 c-6 -6 -7 0 -4 19 5 21 7 23 10 9 2 -10 0
-22 -6 -28z m-212 22 c0 -5 -2 -10 -4 -10 -3 0 -8 5 -11 10 -3 6 -1 10 4 10 6
0 11 -4 11 -10z m1927 -27 c-3 -3 -11 -2 -17 2 -9 6 -9 10 1 16 14 8 27 -7 16
-18z m323 2 c8 0 21 4 28 9 7 4 16 6 18 3 3 -3 -10 -14 -29 -26 -38 -23 -56
-61 -30 -61 9 0 22 8 29 18 13 16 14 16 8 0 -6 -19 10 -25 21 -8 12 19 30 10
31 -15 1 -14 -3 -25 -8 -25 -6 0 -7 -7 -4 -17 8 -21 -32 -62 -44 -44 -5 9 -9
8 -14 -4 -3 -9 -4 -21 0 -26 3 -5 0 -9 -5 -9 -13 0 -14 6 -1 49 11 40 -2 64
-28 53 -23 -8 -47 -32 -33 -32 6 0 11 -4 11 -10 0 -5 -7 -10 -16 -10 -8 0 -13
-4 -9 -9 3 -5 1 -12 -5 -16 -5 -3 -10 0 -10 8 0 8 -7 18 -16 21 -9 4 -14 13
-10 21 3 9 0 15 -9 15 -8 0 -15 -7 -15 -15 0 -18 -43 -20 -58 -2 -7 8 -6 18 4
31 8 11 14 16 14 12 0 -5 7 -2 17 5 15 13 15 12 5 -8 -17 -32 -15 -38 7 -19
14 13 28 16 54 11 35 -7 49 2 54 35 1 10 -5 7 -17 -7 -25 -31 -38 -29 -34 7 4
32 -10 41 -20 14 -3 -9 -12 -14 -19 -11 -6 2 -20 0 -31 -5 -12 -7 -16 -7 -12
0 3 6 2 12 -4 14 -5 1 -7 13 -4 25 5 19 9 20 26 10 16 -10 22 -9 32 6 15 20
62 23 69 5 4 -8 9 -3 13 11 6 20 9 21 18 10 6 -8 18 -14 26 -14z m-2690 -2 c1
-20 39 -94 40 -78 0 6 9 -9 20 -32 20 -46 36 -58 25 -20 l-7 22 23 -22 c12
-12 23 -35 24 -50 2 -30 62 -122 80 -123 6 0 18 -14 27 -30 10 -17 21 -29 25
-28 17 6 53 -30 55 -55 1 -15 6 -27 11 -27 5 0 17 -10 28 -22 10 -13 18 -17
19 -10 0 18 20 15 20 -3 0 -58 156 -185 248 -201 6 -1 33 -12 58 -25 37 -17
51 -20 65 -11 15 10 23 7 47 -17 15 -16 67 -45 115 -66 48 -20 84 -41 81 -47
-3 -5 -14 -6 -25 -3 -30 10 -84 -4 -70 -18 6 -6 11 -21 11 -33 0 -13 5 -26 10
-29 6 -3 10 -11 10 -17 0 -7 -4 -7 -12 0 -7 5 -46 26 -86 47 -43 22 -70 41
-66 47 4 7 2 8 -5 4 -14 -9 -43 12 -35 25 3 5 1 9 -5 9 -5 0 -29 13 -53 29
-24 15 -77 50 -118 76 -120 78 -159 111 -255 214 -141 151 -207 237 -270 354
-14 26 -30 47 -36 47 -6 0 -9 9 -6 19 3 12 0 18 -7 15 -6 -2 -12 7 -12 21 -1
14 2 25 7 25 4 0 6 7 3 15 -4 8 -1 15 5 15 6 0 11 -8 11 -17z m530 8 c6 -2
-23 -21 -31 -21 -4 0 -9 7 -13 15 -4 11 0 14 17 11 12 -3 24 -5 27 -5z m-183
-18 c8 -20 43 -52 58 -53 6 0 16 -9 22 -19 10 -17 9 -18 -9 -13 -25 6 -98 74
-98 91 0 17 20 13 27 -6z m451 -11 c2 -7 -2 -10 -12 -6 -9 3 -16 11 -16 16 0
13 23 5 28 -10z m1675 -9 c9 -2 17 -11 17 -18 0 -8 -8 -19 -17 -24 -15 -9 -15
-12 -4 -20 10 -6 10 -10 1 -16 -6 -4 -9 -14 -5 -23 7 -19 -23 -48 -52 -48 -20
0 -21 4 -18 53 3 42 1 51 -11 46 -7 -3 -14 0 -14 6 0 6 8 11 18 11 14 0 15 2
2 10 -31 20 28 37 83 23z m-1598 -13 c3 -5 -1 -10 -9 -10 -9 0 -16 -4 -16 -9
0 -5 -7 -12 -15 -15 -13 -5 -12 -1 2 19 20 27 29 30 38 15z m-215 -22 c0 -4
-7 -8 -15 -8 -8 0 -15 4 -15 8 0 5 7 9 15 9 8 0 15 -4 15 -9z m939 -48 c0 -10
-2 -11 -6 -2 -2 6 -13 12 -24 12 -21 0 -26 26 -6 33 14 5 37 -22 36 -43z
m-904 30 c3 -6 -1 -7 -9 -4 -18 7 -21 14 -7 14 6 0 13 -4 16 -10z m45 6 c0 -3
-4 -8 -10 -11 -5 -3 -10 -1 -10 4 0 6 5 11 10 11 6 0 10 -2 10 -4z m-125 -26
c3 -5 1 -10 -4 -10 -6 0 -11 5 -11 10 0 6 2 10 4 10 3 0 8 -4 11 -10z m254
-27 c2 -2 -8 -3 -22 -3 -20 0 -25 4 -21 15 5 13 9 13 23 3 9 -7 18 -14 20 -15z
m432 -23 c6 0 7 -4 4 -10 -3 -5 -11 -10 -17 -10 -6 0 -8 3 -5 7 4 3 2 12 -4
19 -6 8 -7 19 -2 26 6 9 9 7 11 -9 2 -13 8 -23 13 -23z m804 0 c-3 -6 -13 -10
-21 -10 -17 0 -19 37 -1 43 14 5 31 -19 22 -33z m-1515 26 c0 -3 -4 -8 -10
-11 -5 -3 -10 -1 -10 4 0 6 5 11 10 11 6 0 10 -2 10 -4z m873 -3 c4 -3 0 -15
-10 -25 -19 -21 -10 -37 11 -19 11 9 16 9 23 -1 9 -15 43 -20 43 -7 0 5 -10
13 -22 18 -14 5 -18 10 -10 15 13 8 42 -15 42 -32 0 -14 34 -25 38 -13 5 16
22 13 22 -3 0 -9 8 -12 25 -8 14 2 25 0 25 -5 0 -5 15 -10 32 -11 18 -2 37 -7
42 -12 5 -5 -20 -8 -63 -6 -40 1 -76 7 -79 13 -11 15 -67 23 -101 13 -19 -5
-31 -5 -31 1 0 5 -5 9 -12 9 -9 0 -9 -3 0 -12 7 -7 12 -21 12 -32 0 -15 -6
-21 -24 -21 -13 0 -22 3 -19 8 2 4 -3 7 -12 7 -8 0 -18 -7 -21 -15 -4 -8 -13
-15 -21 -15 -8 0 -13 6 -10 13 2 6 10 11 16 10 6 -2 11 4 11 12 0 8 -6 12 -13
9 -17 -6 -41 21 -32 36 9 14 81 50 88 44 3 -3 12 3 19 15 14 22 20 25 31 14z
m587 -13 c-8 -5 -19 -10 -25 -10 -5 0 -3 5 5 10 8 5 20 10 25 10 6 0 3 -5 -5
-10z m-1300 -21 c0 -11 -4 -17 -10 -14 -5 3 -10 13 -10 21 0 8 5 14 10 14 6 0
10 -9 10 -21z m60 -4 c7 -9 8 -15 2 -15 -5 0 -12 7 -16 15 -3 8 -4 15 -2 15 2
0 9 -7 16 -15z m770 0 c0 -12 -19 -12 -23 0 -4 9 -1 12 9 8 7 -3 14 -7 14 -8z
m270 5 c0 -5 -6 -10 -14 -10 -7 0 -18 -6 -24 -12 -8 -10 -2 -13 23 -14 24 0
36 5 44 20 9 20 10 19 10 -6 1 -15 -4 -30 -9 -33 -8 -5 -7 -11 1 -21 9 -11 8
-14 -4 -14 -8 0 -18 -6 -20 -12 -4 -10 -8 -9 -16 2 -9 12 -11 11 -11 -9 0 -18
-3 -21 -13 -12 -8 6 -17 8 -20 4 -4 -3 -7 3 -7 14 0 24 -24 48 -40 38 -5 -3
-13 1 -17 10 -3 10 0 21 7 25 9 5 9 9 1 14 -6 4 -9 12 -6 17 8 12 115 12 115
-1z m695 0 c3 -5 -3 -10 -14 -10 -12 0 -21 5 -21 10 0 6 6 10 14 10 8 0 18 -4
21 -10z m-1895 -25 c5 3 10 1 10 -5 0 -6 4 -9 9 -6 5 3 12 -2 15 -11 4 -10 4
-14 0 -10 -4 4 -16 0 -26 -10 -17 -15 -18 -15 -18 0 0 10 -8 17 -20 17 -22 0
-23 1 -14 24 5 13 10 14 20 5 7 -6 18 -8 24 -4z m579 -11 c-6 -8 -18 -14 -25
-14 -11 0 -10 5 4 18 19 21 39 18 21 -4z m78 10 c12 5 13 4 5 -7 -9 -10 -8
-18 3 -33 21 -28 18 -40 -5 -19 -11 10 -20 24 -20 32 0 7 -7 13 -15 13 -8 0
-15 -5 -15 -11 0 -5 6 -7 13 -3 9 5 9 4 0 -6 -15 -16 -32 -5 -28 18 2 9 4 21
4 25 1 4 10 3 22 -3 11 -7 28 -9 36 -6z m778 -4 c-3 -5 -16 -10 -28 -10 -18 0
-19 2 -7 10 20 13 43 13 35 0z m465 2 c0 -5 -7 -9 -15 -9 -8 0 -12 4 -9 9 3 4
9 8 15 8 5 0 9 -4 9 -8z m-1580 -54 c0 -18 -9 -22 -42 -19 -9 1 -19 -3 -22 -8
-4 -6 -13 -8 -20 -5 -7 3 -19 -2 -26 -11 -16 -20 -34 -19 -26 1 4 11 1 14 -12
10 -12 -4 -26 1 -37 14 -10 11 -13 20 -7 20 7 0 12 -4 12 -10 0 -5 5 -10 10
-10 6 0 10 8 10 18 0 14 2 14 9 3 5 -8 16 -11 26 -8 9 4 13 3 10 -2 -3 -5 -1
-12 5 -16 5 -3 10 -3 10 2 0 4 14 9 32 10 29 2 67 23 41 23 -6 0 -10 8 -8 18
2 9 4 19 4 21 2 12 30 -36 31 -51z m-130 38 c0 -3 -4 -8 -10 -11 -5 -3 -10 -1
-10 4 0 6 5 11 10 11 6 0 10 -2 10 -4z m304 -11 c3 -8 2 -15 -3 -15 -5 0 -14
7 -21 15 -10 12 -10 15 3 15 8 0 17 -7 21 -15z m856 8 l33 -6 -23 -17 -23 -17
36 -5 c30 -3 37 -1 37 13 0 10 4 20 9 24 6 3 6 -7 0 -27 -5 -18 -6 -41 -3 -50
3 -10 1 -18 -5 -18 -6 0 -11 -5 -11 -11 0 -6 9 -8 21 -4 15 5 19 4 15 -4 -4
-6 -3 -11 2 -11 6 0 8 -9 5 -20 -4 -16 -11 -18 -31 -13 -18 4 -23 3 -18 -6 6
-9 -3 -11 -33 -7 -22 3 -42 2 -45 -2 -2 -4 17 -8 42 -10 50 -3 97 -26 87 -42
-4 -6 1 -10 9 -10 22 0 29 18 10 28 -18 10 -13 42 7 42 8 0 8 -5 -1 -16 -11
-13 -10 -16 8 -21 21 -5 31 -23 13 -23 -5 0 -11 -7 -15 -15 -3 -8 -2 -14 2
-13 4 0 18 -4 32 -10 21 -9 15 -11 -42 -11 -39 -1 -68 3 -68 9 0 6 7 10 15 10
17 0 18 2 9 24 -5 12 -21 16 -75 16 -61 0 -69 2 -69 19 0 20 -26 36 -35 22 -3
-5 2 -11 10 -15 27 -10 17 -27 -12 -20 -16 4 -25 3 -21 -1 13 -14 -41 -35 -65
-25 -21 8 -21 9 -2 10 17 2 16 3 -5 10 -14 4 -40 8 -57 9 -22 1 -33 6 -33 16
0 11 11 15 43 15 31 0 38 3 27 10 -9 6 -10 10 -3 10 7 0 16 -7 21 -16 11 -19
32 -11 32 12 0 11 4 12 19 4 28 -15 49 -13 27 3 -10 8 -15 19 -11 30 6 14 11
15 28 5 28 -15 97 -21 97 -8 0 6 -8 11 -17 11 -39 3 -44 5 -54 19 -8 11 -12
12 -16 2 -2 -6 -9 -9 -15 -6 -15 10 28 35 48 27 12 -4 15 -3 10 5 -4 7 -14 12
-22 12 -20 0 -17 20 4 21 16 1 16 2 0 6 -21 5 -22 9 -5 28 14 16 30 18 77 8z
m-1245 -24 c-10 -15 -25 -10 -19 6 4 8 10 12 15 9 5 -3 7 -10 4 -15z m-185
-12 c0 -7 14 -21 30 -31 17 -9 28 -21 25 -26 -3 -4 0 -11 5 -13 7 -4 6 -5 0
-3 -7 1 -11 5 -10 10 0 4 -14 16 -32 26 -32 17 -51 50 -29 50 6 0 11 -6 11
-13z m615 -14 c11 -2 24 -8 30 -14 10 -11 6 -11 -55 7 -11 3 -20 10 -20 15 0
6 6 7 13 2 6 -4 21 -9 32 -10z m-118 -23 c10 -11 26 -20 36 -20 10 0 16 -4 13
-8 -3 -5 -25 -4 -49 2 -35 8 -43 14 -39 28 6 23 18 23 39 -2z m1098 10 c3 -5
-3 -10 -14 -10 -14 0 -19 -5 -15 -15 4 -8 1 -15 -5 -15 -6 0 -10 6 -8 13 1 6
-6 11 -15 9 -27 -4 -22 16 5 21 39 8 46 7 52 -3z m-490 -25 c11 -2 32 -4 48
-4 15 -1 27 -5 27 -9 0 -5 -31 -8 -69 -7 l-69 2 8 -29 c8 -25 7 -27 -10 -18
-11 6 -24 18 -29 28 -9 15 -10 15 -11 -3 0 -12 5 -26 12 -33 19 -19 -1 -14
-22 6 -19 18 -19 20 -4 51 17 34 19 34 119 16z m1389 0 c3 -8 1 -15 -4 -15 -6
0 -10 7 -10 15 0 8 2 15 4 15 2 0 6 -7 10 -15z m-2094 -7 c0 -9 -36 -5 -46 5
-4 4 5 6 19 5 15 -1 27 -6 27 -10z m300 2 c0 -5 -4 -10 -9 -10 -6 0 -13 5 -16
10 -3 6 1 10 9 10 9 0 16 -4 16 -10z m510 6 c0 -3 -4 -8 -10 -11 -5 -3 -10 -1
-10 4 0 6 5 11 10 11 6 0 10 -2 10 -4z m35 -14 c-3 -3 -11 0 -18 7 -9 10 -8
11 6 5 10 -3 15 -9 12 -12z m-462 -9 c-7 -2 -21 -2 -30 0 -10 3 -4 5 12 5 17
0 24 -2 18 -5z m-170 -16 c4 3 7 -1 7 -11 0 -9 7 -19 15 -22 8 -4 15 -10 15
-15 0 -13 -33 3 -52 26 -21 24 -24 42 -5 26 8 -6 17 -8 20 -4z m667 -7 c0 -5
-2 -10 -4 -10 -3 0 -8 5 -11 10 -3 6 -1 10 4 10 6 0 11 -4 11 -10z m-1035 -10
c3 -5 2 -10 -4 -10 -5 0 -13 5 -16 10 -3 6 -2 10 4 10 5 0 13 -4 16 -10z m605
0 c0 -5 -2 -10 -4 -10 -3 0 -8 5 -11 10 -3 6 -1 10 4 10 6 0 11 -4 11 -10z
m-1040 -37 c8 -21 16 -41 18 -44 1 -4 -8 -4 -21 -2 -31 6 -55 42 -35 54 10 7
10 9 1 9 -7 0 -13 5 -13 10 0 6 8 10 18 10 12 0 23 -13 32 -37z m1090 23 c0
-7 -9 -16 -20 -19 -25 -6 -26 1 -2 19 22 17 22 17 22 0z m50 4 c0 -5 -2 -10
-4 -10 -3 0 -8 5 -11 10 -3 6 -1 10 4 10 6 0 11 -4 11 -10z m610 0 c-8 -5 -19
-10 -25 -10 -5 0 -3 5 5 10 8 5 20 10 25 10 6 0 3 -5 -5 -10z m-1455 -9 c3 -5
1 -12 -5 -16 -5 -3 -10 1 -10 9 0 18 6 21 15 7z m151 -22 c4 -8 1 -8 -14 0
-12 6 -24 16 -28 22 -4 8 -1 8 14 0 12 -6 24 -16 28 -22z m214 21 c0 -5 -4
-10 -10 -10 -5 0 -10 5 -10 10 0 6 5 10 10 10 6 0 10 -4 10 -10z m454 -26 c8
-22 9 -22 -19 -16 -20 3 -23 7 -14 18 15 18 25 18 33 -2z m-839 -5 c10 -14 1
-21 -19 -13 -9 3 -13 10 -10 15 7 12 21 11 29 -2z m630 -10 c5 -5 -4 -9 -23
-9 -22 0 -32 5 -32 16 0 11 6 14 23 9 12 -4 26 -11 32 -16z m148 -32 c-2 -4 0
-13 5 -20 7 -8 6 -16 -3 -24 -9 -8 -20 -7 -44 4 -41 20 -57 49 -40 69 11 14
15 13 30 -7 9 -13 14 -30 11 -38 -5 -14 -4 -14 10 -1 9 8 13 17 9 20 -12 8
-20 37 -13 44 8 9 42 -36 35 -47z m172 13 c3 -5 1 -10 -4 -10 -6 0 -11 5 -11
10 0 6 2 10 4 10 3 0 8 -4 11 -10z m68 -29 c17 -28 16 -28 -8 -28 -28 0 -31 7
-12 26 10 10 6 11 -17 5 -21 -5 -27 -4 -22 5 4 6 12 9 17 6 5 -4 9 -1 9 4 0
20 16 11 33 -18z m-168 9 c-27 -12 -43 -12 -25 0 8 5 22 9 30 9 10 0 8 -3 -5
-9z m1595 0 c0 -5 -8 -10 -17 -10 -15 0 -16 2 -3 10 19 12 20 12 20 0z m47 4
c-3 -3 -12 -4 -19 -1 -8 3 -5 6 6 6 11 1 17 -2 13 -5z m-2617 -19 c0 -8 -2
-15 -4 -15 -2 0 -6 7 -10 15 -3 8 -1 15 4 15 6 0 10 -7 10 -15z m2425 -5 c3
-5 1 -10 -4 -10 -6 0 -11 5 -11 10 0 6 2 10 4 10 3 0 8 -4 11 -10z m-1453 -21
c13 -6 32 -22 43 -37 l19 -26 -34 24 c-62 43 -74 61 -28 39z m-586 -26 c-7 -7
-26 7 -26 19 0 6 6 6 15 -2 9 -7 13 -15 11 -17z m102 -3 c7 0 12 -5 12 -11 0
-6 -6 -8 -12 -5 -7 3 -21 9 -30 12 -10 4 -18 13 -18 22 0 13 2 13 18 -1 10
-10 24 -17 30 -17z m672 6 c0 -3 -4 -8 -10 -11 -5 -3 -10 -1 -10 4 0 6 5 11
10 11 6 0 10 -2 10 -4z m-600 -14 c0 -14 -11 -21 -26 -15 -21 8 -17 23 6 23
11 0 20 -4 20 -8z m35 -2 c3 -5 1 -10 -4 -10 -6 0 -11 5 -11 10 0 6 2 10 4 10
3 0 8 -4 11 -10z m-537 -12 c23 -20 12 -28 -15 -11 -15 10 -24 12 -20 6 10
-17 -2 -16 -33 1 -24 14 -24 14 15 14 22 0 46 -5 53 -10z m312 -2 c0 -3 -4 -8
-10 -11 -5 -3 -10 -1 -10 4 0 6 5 11 10 11 6 0 10 -2 10 -4z m-31 -40 c-2 -2
-15 1 -29 6 -20 7 -22 11 -10 18 10 6 20 4 29 -5 8 -8 13 -16 10 -19z m731 24
c0 -5 -7 -10 -15 -10 -8 0 -15 5 -15 10 0 6 7 10 15 10 8 0 15 -4 15 -10z m30
0 c0 -5 -4 -10 -10 -10 -5 0 -10 5 -10 10 0 6 5 10 10 10 6 0 10 -4 10 -10z
m-680 -16 c0 -8 -5 -12 -10 -9 -6 4 -8 11 -5 16 9 14 15 11 15 -7z m2075 6
c-3 -5 -13 -10 -21 -10 -8 0 -12 5 -9 10 3 6 13 10 21 10 8 0 12 -4 9 -10z
m-1992 -7 c-18 -7 -16 -23 3 -23 18 0 14 -22 -6 -28 -8 -3 -10 0 -5 8 6 10 0
12 -24 8 -17 -2 -31 -3 -31 -2 0 1 3 10 6 19 6 13 9 14 16 3 7 -10 10 -10 19
5 5 9 15 17 22 16 9 0 9 -2 0 -6z m115 -23 c6 0 12 -4 12 -9 0 -5 -17 -8 -37
-6 -21 1 -37 8 -36 14 2 5 -4 8 -12 5 -8 -4 -15 -2 -15 4 0 17 23 19 50 5 14
-7 31 -13 38 -13z m57 10 c3 -5 1 -10 -4 -10 -6 0 -11 5 -11 10 0 6 2 10 4 10
3 0 8 -4 11 -10z m-274 -16 c11 -14 10 -15 -11 -12 -13 1 -25 9 -28 16 -5 17
23 15 39 -4z m-231 2 c0 -3 -4 -8 -10 -11 -5 -3 -10 -1 -10 4 0 6 5 11 10 11
6 0 10 -2 10 -4z m780 -11 c11 -13 7 -15 -23 -15 -36 0 -57 14 -35 23 24 10
46 7 58 -8z m-280 -5 c13 -8 13 -10 -2 -10 -9 0 -20 5 -23 10 -8 13 5 13 25 0z
m-405 -10 c3 -5 -1 -10 -9 -10 -8 0 -18 5 -21 10 -3 6 1 10 9 10 8 0 18 -4 21
-10z m285 -4 c0 -3 -4 -8 -10 -11 -5 -3 -10 -1 -10 4 0 6 5 11 10 11 6 0 10
-2 10 -4z m26 -23 c-10 -10 -19 5 -10 18 6 11 8 11 12 0 2 -7 1 -15 -2 -18z
m144 12 c-7 -8 -16 -12 -21 -9 -13 8 -1 24 18 24 13 0 13 -3 3 -15z m-90 -5
c0 -5 -4 -10 -10 -10 -5 0 -10 5 -10 10 0 6 5 10 10 10 6 0 10 -4 10 -10z
m-155 -10 c3 -5 2 -10 -4 -10 -5 0 -13 5 -16 10 -3 6 -2 10 4 10 5 0 13 -4 16
-10z m205 -10 c0 -5 -2 -10 -4 -10 -3 0 -8 5 -11 10 -3 6 -1 10 4 10 6 0 11
-4 11 -10z m67 -6 c-3 -3 -12 -4 -19 -1 -8 3 -5 6 6 6 11 1 17 -2 13 -5z
m-369 -21 c16 -16 16 -16 -1 -10 -10 4 -26 7 -35 7 -15 0 -15 2 -2 10 20 13
19 13 38 -7z m132 7 c13 -8 13 -10 -2 -10 -9 0 -20 5 -23 10 -8 13 5 13 25 0z
m243 -15 c-3 -9 -8 -14 -10 -11 -3 3 -2 9 2 15 9 16 15 13 8 -4z m202 5 c3 -6
-1 -7 -9 -4 -18 7 -21 14 -7 14 6 0 13 -4 16 -10z m-630 -40 c-3 -5 -11 -10
-16 -10 -6 0 -7 5 -4 10 3 6 11 10 16 10 6 0 7 -4 4 -10z m625 -30 c0 -5 8 -7
18 -4 13 5 14 4 3 -4 -7 -5 -21 -8 -30 -7 -9 2 -20 4 -26 4 -5 1 -3 6 5 11 19
12 30 13 30 0z m640 -60 c-20 -13 -50 -13 -50 0 0 6 15 10 33 10 24 0 28 -3
17 -10z m90 6 c0 -3 -4 -8 -10 -11 -5 -3 -10 -1 -10 4 0 6 5 11 10 11 6 0 10
-2 10 -4z m-177 -43 c-7 -2 -19 -2 -25 0 -7 3 -2 5 12 5 14 0 19 -2 13 -5z
m637 -13 c0 -5 -5 -10 -11 -10 -5 0 -7 5 -4 10 3 6 8 10 11 10 2 0 4 -4 4 -10z
m-1620 -20 c12 -8 11 -10 -7 -10 -12 0 -25 5 -28 10 -8 13 15 13 35 0z m341
-9 c12 -11 36 -22 55 -26 19 -3 34 -10 34 -15 0 -6 9 -10 20 -10 12 0 32 -7
45 -16 14 -9 25 -13 25 -9 0 3 7 0 15 -9 8 -8 15 -19 15 -25 0 -14 6 -14 32 0
15 8 19 8 14 0 -4 -7 1 -11 13 -11 11 0 23 -5 26 -11 4 -6 32 -9 64 -8 59 2
171 -19 171 -32 0 -4 17 -10 38 -12 20 -2 3 -2 -38 1 -103 7 -113 8 -130 14
-8 4 -49 9 -90 12 -97 7 -176 36 -172 64 2 16 -4 21 -35 25 -35 4 -139 40
-151 51 -5 5 16 36 25 36 2 0 13 -9 24 -19z m202 -10 c4 -1 7 -5 7 -10 0 -10
-38 -3 -45 9 -3 5 3 7 12 5 10 -2 21 -4 26 -4z m-538 -32 c37 -11 38 -12 17
-20 -16 -6 -30 -4 -48 7 -40 27 -32 30 31 13z m711 -60 c3 -5 1 -9 -5 -9 -17
0 -41 12 -41 20 0 10 38 1 46 -11z m-289 -5 c5 -13 7 -13 14 -2 7 10 9 10 9 1
0 -7 7 -13 16 -13 14 0 14 -3 3 -16 -11 -13 -9 -14 16 -8 18 4 26 3 22 -3 -4
-6 0 -13 7 -16 8 -3 17 -1 19 6 3 9 8 9 20 -1 9 -8 20 -11 26 -8 5 3 11 -1 15
-9 3 -8 13 -15 22 -15 10 0 15 -3 11 -6 -6 -6 -137 18 -231 43 -19 5 -19 6 -1
19 18 14 18 14 -1 29 -18 14 -18 14 4 15 12 0 25 -7 29 -16z m323 -4 c0 -5 -4
-10 -10 -10 -5 0 -10 5 -10 10 0 6 5 10 10 10 6 0 10 -4 10 -10z m240 -9 c0
-5 -9 -7 -20 -4 -11 3 -20 7 -20 9 0 2 9 4 20 4 11 0 20 -4 20 -9z m-765 -26
c22 -8 33 -14 24 -15 -9 0 -32 7 -50 15 -44 18 -26 19 26 0z m130 -25 c7 -11
-16 -11 -60 0 -28 7 -28 8 12 9 23 0 45 -3 48 -9z m902 4 c-3 -3 -12 -4 -19
-1 -8 3 -5 6 6 6 11 1 17 -2 13 -5z m-827 -8 c0 -2 -9 -6 -20 -9 -11 -3 -20
-1 -20 4 0 5 9 9 20 9 11 0 20 -2 20 -4z m133 -33 c-7 -2 -21 -2 -30 0 -10 3
-4 5 12 5 17 0 24 -2 18 -5z"/>
<path d="M1887 4324 c-3 -3 -3 -12 0 -20 3 -8 0 -14 -6 -14 -21 0 -11 -31 23
-65 18 -19 40 -35 48 -35 9 0 22 -7 29 -16 12 -14 14 -14 20 3 7 16 8 16 8 1
1 -20 12 -22 58 -9 17 5 34 6 38 3 3 -3 11 -7 18 -8 7 -1 20 -5 30 -9 16 -7
17 -4 11 21 -9 37 -7 36 -35 25 -19 -7 -35 -3 -69 15 -24 13 -53 21 -62 18
-11 -3 -20 1 -24 10 -3 9 -14 16 -24 16 -10 0 -23 13 -30 30 -13 32 -24 43
-33 34z m48 -84 c3 -5 1 -10 -4 -10 -6 0 -11 5 -11 10 0 6 2 10 4 10 3 0 8 -4
11 -10z"/>
<path d="M2380 4277 c-24 -9 -24 -9 -5 -17 11 -4 25 -4 30 0 6 4 17 9 25 12
11 3 9 6 -6 10 -11 3 -31 1 -44 -5z"/>
<path d="M2530 4243 c0 -3 8 -15 17 -25 17 -19 16 -19 -12 -14 -17 4 -23 3
-15 0 8 -4 19 -13 23 -21 5 -8 16 -11 25 -9 23 8 79 -43 61 -55 -10 -6 -10
-11 -1 -22 7 -8 10 -21 6 -30 -5 -13 -1 -14 23 -8 30 8 33 26 20 116 -3 22 -1
45 5 52 17 21 -7 15 -26 -6 -17 -19 -18 -19 -72 5 -30 13 -54 21 -54 17z"/>
<path d="M1701 4171 c-34 -6 -56 -31 -28 -31 37 0 77 14 77 26 0 8 -3 13 -7
13 -5 -1 -23 -4 -42 -8z"/>
<path d="M1905 4171 c-3 -5 -1 -12 5 -16 5 -3 10 1 10 9 0 18 -6 21 -15 7z"/>
<path d="M2094 4140 c0 -11 3 -20 7 -20 10 0 19 27 12 34 -12 11 -19 6 -19
-14z"/>
<path d="M1800 4144 c0 -13 35 -32 45 -24 5 4 23 6 38 3 25 -5 27 -8 22 -37
-4 -17 -12 -35 -19 -41 -6 -5 -10 -20 -8 -32 3 -22 8 -23 52 -13 3 0 -4 7 -15
16 -16 12 -17 16 -6 23 8 5 20 7 28 4 7 -3 13 0 13 6 0 6 -7 11 -15 11 -18 0
-17 -3 -6 37 5 18 6 34 3 37 -14 7 -132 17 -132 10z"/>
<path d="M1463 4120 c14 -11 30 -20 35 -20 6 0 8 9 5 20 -4 14 -14 20 -36 20
l-30 0 26 -20z"/>
<path d="M2147 4127 c-3 -8 0 -14 7 -14 7 0 13 6 13 14 0 7 -4 13 -8 13 -4 0
-9 -6 -12 -13z"/>
<path d="M2048 4123 c6 -2 18 -2 25 0 6 3 1 5 -13 5 -14 0 -19 -2 -12 -5z"/>
<path d="M1626 4105 c-19 -14 -18 -15 16 -15 19 0 50 -3 67 -6 20 -4 31 -3 31
5 0 6 -16 11 -35 11 -19 0 -35 5 -35 10 0 14 -22 12 -44 -5z"/>
<path d="M2716 4076 c3 -9 11 -16 16 -16 13 0 5 23 -10 28 -7 2 -10 -2 -6 -12z"/>
<path d="M1984 4065 c-19 -14 -18 -14 4 -15 13 0 22 6 22 15 0 19 -1 19 -26 0z"/>
<path d="M1533 4054 c4 -7 0 -17 -8 -24 -20 -17 -19 -29 3 -25 9 2 20 4 25 4
13 2 7 28 -10 42 -9 8 -14 9 -10 3z"/>
<path d="M2675 4040 c3 -5 13 -10 21 -10 8 0 12 5 9 10 -3 6 -13 10 -21 10 -8
0 -12 -4 -9 -10z"/>
<path d="M1358 4026 c-30 -11 -35 -21 -15 -29 15 -6 64 28 51 35 -5 3 -21 0
-36 -6z"/>
<path d="M1842 4018 c2 -6 10 -14 16 -16 7 -2 10 2 6 12 -7 18 -28 22 -22 4z"/>
<path d="M1570 3992 c-19 -10 -43 -16 -52 -14 -12 2 -18 -3 -18 -16 0 -31 -41
-37 -64 -9 -10 12 -17 15 -14 7 5 -17 -21 -50 -39 -50 -7 0 -14 -4 -14 -10 -2
-15 -5 -23 -19 -55 -7 -16 -12 -40 -11 -52 1 -13 -2 -23 -8 -23 -15 0 -13 -11
5 -35 14 -19 15 -18 48 20 32 37 33 40 16 52 -24 17 -32 83 -10 83 18 0 48
-28 49 -45 1 -9 6 -10 31 -6 6 0 10 10 10 20 0 11 4 22 9 25 5 4 8 -4 7 -17
-2 -18 2 -23 18 -22 12 1 22 9 24 18 2 10 8 15 13 12 5 -4 9 1 9 10 0 9 6 15
13 12 6 -2 12 -12 12 -22 0 -25 19 -30 39 -10 9 9 24 14 34 11 11 -4 25 1 36
13 17 18 16 20 -15 35 -42 21 -61 20 -106 -4 -43 -23 -55 -19 -40 15 10 21 47
47 69 49 4 1 13 7 20 14 18 18 -9 15 -52 -6z m80 -82 c0 -5 -2 -10 -4 -10 -3
0 -8 5 -11 10 -3 6 -1 10 4 10 6 0 11 -4 11 -10z m-286 -155 c-4 -8 -8 -15
-10 -15 -2 0 -4 7 -4 15 0 8 4 15 10 15 5 0 7 -7 4 -15z"/>
<path d="M2730 3990 c0 -5 4 -10 9 -10 6 0 13 5 16 10 3 6 -1 10 -9 10 -9 0
-16 -4 -16 -10z"/>
<path d="M1830 3980 c0 -5 5 -10 11 -10 5 0 7 -4 4 -10 -3 -6 1 -7 9 -4 21 8
20 11 -4 24 -14 7 -20 7 -20 0z"/>
<path d="M1694 3965 c26 -20 42 -19 22 0 -8 8 -21 15 -28 15 -8 -1 -6 -6 6
-15z"/>
<path d="M1753 3968 c2 -7 10 -12 16 -10 6 1 11 -5 11 -14 0 -8 5 -12 10 -9 6
3 10 15 10 26 0 14 -7 19 -26 19 -16 0 -24 -5 -21 -12z"/>
<path d="M2055 3970 c-3 -5 -1 -10 4 -10 6 0 11 5 11 10 0 6 -2 10 -4 10 -3 0
-8 -4 -11 -10z"/>
<path d="M2110 3930 c0 -5 5 -10 10 -10 6 0 10 5 10 10 0 6 -4 10 -10 10 -5 0
-10 -4 -10 -10z"/>
<path d="M1270 3875 c0 -8 4 -15 9 -15 5 0 11 7 15 15 3 9 0 15 -9 15 -8 0
-15 -7 -15 -15z"/>
<path d="M2370 3850 c0 -5 5 -10 10 -10 6 0 10 5 10 10 0 6 -4 10 -10 10 -5 0
-10 -4 -10 -10z"/>
<path d="M1245 3839 c-4 -5 3 -18 14 -28 12 -10 21 -23 21 -30 0 -6 7 -11 16
-11 14 0 14 3 4 15 -7 8 -9 15 -4 15 5 0 2 5 -6 10 -10 6 -11 10 -2 10 6 0 12
5 12 11 0 6 -7 9 -15 5 -8 -3 -15 -1 -15 4 0 13 -17 13 -25 -1z"/>
<path d="M1090 3790 c0 -5 5 -10 10 -10 6 0 10 5 10 10 0 6 -4 10 -10 10 -5 0
-10 -4 -10 -10z"/>
<path d="M1160 3790 c0 -12 28 -25 36 -17 3 3 -4 10 -15 17 -15 7 -21 7 -21 0z"/>
<path d="M1700 3785 c10 -12 10 -19 2 -27 -9 -9 -12 -9 -12 1 0 7 -4 9 -10 6
-5 -3 -10 1 -10 9 0 9 -7 16 -16 16 -8 0 -12 -5 -8 -11 3 -6 1 -15 -5 -19 -17
-10 -30 -75 -27 -132 2 -26 -1 -45 -6 -42 -4 3 -8 1 -8 -4 0 -5 -18 -17 -40
-27 -22 -10 -40 -25 -40 -34 0 -14 -2 -14 -10 -1 -11 17 -15 13 -24 -22 -6
-26 -5 -26 39 -23 38 2 46 0 44 -14 -3 -38 1 -45 15 -25 12 15 17 17 27 7 7
-7 24 -13 39 -13 20 0 22 -2 10 -10 -12 -8 -11 -10 6 -10 12 0 25 -8 29 -17 5
-15 4 -16 -6 -5 -18 17 -37 15 -42 -5 -3 -11 -5 -7 -6 10 -1 16 -7 27 -15 27
-9 0 -12 -7 -9 -20 4 -13 0 -20 -10 -20 -8 0 -20 -7 -27 -15 -7 -8 -20 -15
-30 -15 -23 0 -54 36 -44 51 4 8 3 10 -4 5 -7 -4 -12 -18 -12 -30 0 -18 10
-28 47 -44 35 -15 50 -17 55 -9 5 8 8 6 8 -5 0 -10 -6 -18 -12 -18 -7 0 -2 -6
12 -13 21 -11 27 -11 39 1 7 7 20 11 27 8 7 -3 16 0 20 6 4 7 9 6 14 -2 6 -9
11 -7 19 9 7 12 9 26 6 31 -8 13 1 13 26 0 17 -10 18 -8 8 16 -12 33 -6 54 16
54 9 0 25 5 36 11 20 10 20 10 0 45 -25 42 -25 44 -6 44 16 0 20 12 8 23 -3 4
-8 19 -9 33 -4 32 -24 58 -24 30 0 -15 -3 -16 -15 -6 -12 10 -15 10 -15 -3 0
-13 -5 -14 -31 -5 -22 8 -34 7 -42 -1 -28 -28 -37 1 -10 31 17 19 14 26 -18
40 -3 2 -9 15 -13 31 -5 22 -3 27 11 27 14 0 15 2 4 9 -17 11 1 23 23 15 11
-4 14 -13 11 -25 -8 -23 8 -25 29 -4 13 13 15 13 18 -3 3 -13 8 -9 22 17 16
30 16 33 2 28 -11 -5 -16 -1 -16 14 0 13 -4 18 -12 13 -8 -5 -9 -2 -5 9 5 13
1 17 -15 17 -17 0 -18 -2 -8 -15z m72 -237 c-17 -17 -15 -28 6 -22 11 4 8 -1
-8 -15 -14 -11 -28 -21 -32 -21 -16 0 -8 -30 8 -30 8 0 12 -4 9 -10 -3 -5 -1
-10 5 -10 6 0 8 -4 5 -10 -3 -5 -17 -10 -31 -10 -13 0 -24 -5 -24 -11 0 -6 -7
-4 -15 5 -20 20 -19 29 7 45 21 13 21 14 3 28 -19 13 -19 13 5 11 15 -2 27 4
34 17 18 33 27 45 34 45 3 0 1 -5 -6 -12z m-200 -40 c-15 -15 -26 -4 -18 18 5
13 9 15 18 6 9 -9 9 -15 0 -24z m118 -28 c12 -8 11 -10 -7 -10 -13 0 -23 5
-23 10 0 13 11 13 30 0z m-49 -130 c10 0 19 -4 19 -9 0 -15 -36 -19 -53 -6
-21 15 -22 29 -1 21 9 -3 24 -6 35 -6z m9 -40 c0 -5 -4 -10 -10 -10 -5 0 -10
5 -10 10 0 6 5 10 10 10 6 0 10 -4 10 -10z"/>
<path d="M1135 3750 c4 -6 11 -8 16 -5 14 9 11 15 -7 15 -8 0 -12 -5 -9 -10z"/>
<path d="M1415 3690 c-3 -5 -1 -10 4 -10 6 0 11 5 11 10 0 6 -2 10 -4 10 -3 0
-8 -4 -11 -10z"/>
<path d="M2395 3680 c3 -5 8 -10 11 -10 2 0 4 5 4 10 0 6 -5 10 -11 10 -5 0
-7 -4 -4 -10z"/>
<path d="M1683 3668 c-2 -5 6 -8 18 -8 18 0 20 -3 11 -12 -15 -15 -16 -48 -1
-48 7 0 22 11 35 25 21 23 22 25 4 25 -13 0 -17 5 -14 14 4 10 -2 14 -21 12
-15 0 -29 -4 -32 -8z"/>
<path d="M2358 3663 c7 -3 16 -2 19 1 4 3 -2 6 -13 5 -11 0 -14 -3 -6 -6z"/>
<path d="M2036 3625 c4 -8 11 -15 16 -15 6 0 5 6 -2 15 -7 8 -14 15 -16 15 -2
0 -1 -7 2 -15z"/>
<path d="M900 3623 c0 -5 5 -15 10 -23 8 -12 10 -11 10 8 0 12 -4 22 -10 22
-5 0 -10 -3 -10 -7z"/>
<path d="M1270 3539 c0 -5 5 -7 10 -4 6 3 10 8 10 11 0 2 -4 4 -10 4 -5 0 -10
-5 -10 -11z"/>
<path d="M1955 3503 c17 -9 33 -20 36 -25 4 -6 8 1 11 14 4 21 0 23 -36 25
l-41 3 30 -17z"/>
<path d="M1940 3480 c18 -12 30 -13 30 -2 0 4 -10 9 -22 9 -18 2 -20 0 -8 -7z"/>
<path d="M2150 3471 c0 -5 5 -13 10 -16 6 -3 10 -2 10 4 0 5 -4 13 -10 16 -5
3 -10 2 -10 -4z"/>
<path d="M1426 3455 c-3 -8 -1 -15 4 -15 6 0 10 7 10 15 0 8 -2 15 -4 15 -2 0
-6 -7 -10 -15z"/>
<path d="M1860 3464 c0 -5 7 -20 16 -32 8 -12 14 -28 11 -35 -4 -11 32 -51 40
-43 2 2 -1 15 -6 29 -8 21 -7 27 7 30 13 4 11 5 -5 6 -12 0 -31 13 -42 27 -12
15 -21 23 -21 18z"/>
<path d="M2010 3450 c0 -22 1 -23 24 -14 13 5 14 9 5 20 -16 20 -29 17 -29 -6z"/>
<path d="M1958 3453 c7 -3 16 -2 19 1 4 3 -2 6 -13 5 -11 0 -14 -3 -6 -6z"/>
<path d="M1470 3440 c0 -5 5 -10 11 -10 5 0 7 5 4 10 -3 6 -8 10 -11 10 -2 0
-4 -4 -4 -10z"/>
<path d="M2111 3423 c-1 -28 8 -53 21 -53 7 0 7 4 0 13 -5 6 -12 23 -15 37 -4
22 -4 22 -6 3z"/>
<path d="M1456 3394 c9 -50 11 -52 16 -14 3 19 -1 35 -10 42 -11 10 -13 6 -6
-28z"/>
<path d="M1371 3404 c0 -11 3 -14 6 -6 3 7 2 16 -1 19 -3 4 -6 -2 -5 -13z"/>
<path d="M1540 3398 c0 -11 22 -10 39 1 10 7 7 9 -12 8 -15 -1 -27 -5 -27 -9z"/>
<path d="M2000 3388 c-1 -22 -1 -22 -15 -4 -8 11 -16 18 -18 15 -22 -31 -57
-111 -52 -119 9 -15 25 -2 18 15 -3 10 1 15 12 15 9 0 13 -4 10 -10 -9 -15 8
-12 33 6 14 9 21 22 18 31 -4 10 -1 13 13 8 10 -3 28 -2 40 3 l22 8 -21 22
c-12 12 -25 20 -31 17 -5 -4 -9 -1 -9 4 0 6 -4 11 -10 11 -5 0 -10 -10 -10
-22z m50 -18 c0 -5 -7 -10 -15 -10 -8 0 -15 5 -15 10 0 6 7 10 15 10 8 0 15
-4 15 -10z m-79 -37 c-12 -20 -14 -14 -5 12 4 9 9 14 11 11 3 -2 0 -13 -6 -23z"/>
<path d="M2053 3312 c9 -2 15 -8 12 -13 -4 -5 0 -9 7 -9 7 0 23 -3 36 -6 16
-5 22 -2 22 9 0 8 4 17 10 19 5 2 -16 3 -48 3 -31 1 -49 -1 -39 -3z"/>
<path d="M1723 3285 c-8 -9 -9 -16 -3 -20 6 -3 13 1 16 10 9 21 2 26 -13 10z"/>
<path d="M1074 3180 c0 -55 2 -67 12 -59 15 12 13 121 -2 126 -5 2 -9 -28 -10
-67z"/>
<path d="M1533 3183 c9 -2 25 -2 35 0 9 3 1 5 -18 5 -19 0 -27 -2 -17 -5z"/>
<path d="M1360 3075 c-7 -9 -18 -14 -24 -12 -12 4 -56 -38 -56 -54 0 -6 8 -6
20 1 11 6 25 8 30 5 6 -3 10 -2 10 3 0 15 43 23 53 9 6 -8 7 -7 4 5 -3 9 -1
18 6 21 8 2 7 9 -5 20 -20 21 -22 21 -38 2z"/>
<path d="M1514 3082 c3 -5 -13 -16 -34 -26 -22 -10 -40 -22 -40 -27 0 -5 -6
-9 -13 -9 -8 0 -14 -6 -14 -14 0 -11 8 -13 31 -9 45 9 104 31 84 32 -20 1 -24
16 -6 27 7 4 8 3 4 -4 -10 -17 3 -15 20 3 14 13 14 15 0 15 -9 0 -16 5 -16 10
0 6 -5 10 -11 10 -5 0 -8 -4 -5 -8z m-44 -56 c0 -3 -4 -8 -10 -11 -5 -3 -10
-1 -10 4 0 6 5 11 10 11 6 0 10 -2 10 -4z"/>
<path d="M1250 3019 c0 -5 5 -7 10 -4 6 3 10 8 10 11 0 2 -4 4 -10 4 -5 0 -10
-5 -10 -11z"/>
<path d="M996 2953 c-11 -11 -6 -23 9 -23 8 0 15 4 15 9 0 13 -16 22 -24 14z"/>
<path d="M1485 2920 c-3 -5 3 -10 14 -10 11 0 23 5 26 10 3 6 -3 10 -14 10
-11 0 -23 -4 -26 -10z"/>
<path d="M1425 2875 c-29 -24 -25 -32 9 -19 9 3 13 10 10 15 -3 5 11 9 31 9
22 0 34 4 30 10 -11 17 -49 10 -80 -15z"/>
<path d="M1166 2853 c-3 -3 -6 -14 -6 -24 0 -22 36 -44 45 -29 7 12 -29 62
-39 53z"/>
<path d="M2185 2850 c3 -5 8 -10 11 -10 2 0 4 5 4 10 0 6 -5 10 -11 10 -5 0
-7 -4 -4 -10z"/>
<path d="M2210 2823 c0 -11 7 -23 15 -27 19 -7 19 3 0 28 -15 19 -15 19 -15
-1z"/>
<path d="M1000 2808 c0 -10 -7 -18 -15 -18 -18 0 -20 -19 -2 -21 6 -1 15 -1
18 -1 3 1 4 -11 1 -26 l-4 -27 22 22 23 21 -21 34 c-15 22 -22 27 -22 16z"/>
<path d="M2256 2797 c-9 -35 -7 -47 10 -47 8 0 12 -4 9 -10 -3 -5 1 -10 10
-10 30 0 11 -33 -24 -43 -24 -6 -31 -11 -23 -19 7 -7 19 -6 39 4 16 8 39 13
51 11 26 -3 29 18 7 41 -8 8 -15 17 -15 20 0 3 7 3 15 0 8 -4 15 -1 15 6 0 6
-8 10 -17 9 -28 -3 -53 11 -53 31 0 28 -17 33 -24 7z"/>
<path d="M1770 2785 c-13 -16 -12 -17 33 -19 33 -2 33 -2 3 17 -21 14 -26 14
-36 2z"/>
<path d="M1210 2781 c0 -6 5 -13 12 -17 8 -5 6 -11 -5 -19 -15 -11 -14 -13 8
-23 16 -7 23 -17 19 -27 -4 -10 0 -15 13 -15 11 0 29 -9 41 -20 25 -24 72 -27
72 -5 0 8 -4 15 -9 15 -11 0 -63 43 -107 88 -34 33 -44 39 -44 23z"/>
<path d="M855 2770 c3 -5 14 -10 23 -10 15 0 15 2 2 10 -20 13 -33 13 -25 0z"/>
<path d="M934 2748 c-4 -7 -3 -8 4 -4 7 4 12 2 12 -3 0 -6 7 -11 15 -11 8 0
15 7 15 15 0 18 -36 20 -46 3z"/>
<path d="M1530 2735 c-11 -13 -10 -14 4 -9 9 3 16 10 16 15 0 13 -6 11 -20 -6z"/>
<path d="M2230 2710 c0 -5 5 -10 10 -10 6 0 10 5 10 10 0 6 -4 10 -10 10 -5 0
-10 -4 -10 -10z"/>
<path d="M1205 2700 c4 -6 11 -8 16 -5 14 9 11 15 -7 15 -8 0 -12 -5 -9 -10z"/>
<path d="M1600 2680 c-14 -4 -18 -8 -9 -9 9 -1 24 -10 34 -21 19 -21 45 -27
45 -9 0 5 10 3 22 -5 31 -22 41 -20 33 7 -6 18 -5 20 6 10 7 -7 20 -13 29 -13
12 1 11 4 -5 16 -12 9 -31 13 -47 10 -20 -4 -28 -1 -28 9 0 16 -37 19 -80 5z"/>
<path d="M1413 2647 c5 -18 57 -22 57 -4 0 9 -11 14 -31 15 -19 0 -29 -4 -26
-11z"/>
<path d="M1217 2634 c-12 -12 12 -42 43 -53 18 -6 28 -6 25 -1 -4 6 -12 10
-18 10 -7 0 -19 11 -28 25 -8 14 -18 23 -22 19z"/>
<path d="M1260 2616 c0 -2 7 -7 16 -10 8 -3 12 -2 9 4 -6 10 -25 14 -25 6z"/>
<path d="M1435 2610 c-17 -6 -14 -9 18 -15 20 -4 37 -11 37 -16 0 -5 8 -9 17
-9 14 0 12 4 -7 25 -25 26 -33 28 -65 15z"/>
<path d="M2425 2600 c3 -5 8 -10 11 -10 2 0 4 5 4 10 0 6 -5 10 -11 10 -5 0
-7 -4 -4 -10z"/>
<path d="M1540 2586 c0 -2 7 -6 15 -10 8 -3 15 -1 15 4 0 6 -7 10 -15 10 -8 0
-15 -2 -15 -4z"/>
<path d="M1710 2551 c0 -10 30 -24 37 -17 3 3 2 9 -2 15 -8 13 -35 15 -35 2z"/>
<path d="M2390 2551 c0 -5 5 -13 10 -16 6 -3 10 -2 10 4 0 5 -4 13 -10 16 -5
3 -10 2 -10 -4z"/>
<path d="M2075 2540 c-3 -5 -1 -10 4 -10 6 0 11 5 11 10 0 6 -2 10 -4 10 -3 0
-8 -4 -11 -10z"/>
<path d="M1408 2523 c7 -3 16 -2 19 1 4 3 -2 6 -13 5 -11 0 -14 -3 -6 -6z"/>
<path d="M2423 2517 c4 -10 0 -29 -9 -43 -9 -13 -15 -27 -12 -29 3 -3 13 11
24 30 15 29 16 37 5 47 -12 11 -13 10 -8 -5z"/>
<path d="M1780 2511 c0 -6 6 -11 13 -11 22 -1 66 -45 69 -70 2 -17 -1 -24 -11
-22 -12 3 -12 0 -1 -12 17 -21 54 -21 46 -1 -3 8 -2 15 2 15 5 0 13 12 20 28
8 18 10 20 6 5 -5 -22 9 -32 20 -15 10 16 -17 82 -33 82 -9 1 -42 3 -73 6 -39
4 -58 2 -58 -5z"/>
<path d="M2060 2501 c0 -18 32 -43 43 -32 6 6 5 15 -6 25 -17 18 -37 21 -37 7z"/>
<path d="M1280 2470 c0 -11 2 -20 4 -20 2 0 6 9 9 20 3 11 1 20 -4 20 -5 0 -9
-9 -9 -20z"/>
<path d="M2450 2481 c0 -17 12 -41 20 -41 10 0 1 38 -11 46 -5 3 -9 1 -9 -5z"/>
<path d="M1664 2447 c-7 -20 3 -37 22 -37 18 0 18 24 -1 40 -12 10 -16 9 -21
-3z"/>
<path d="M1545 2429 c-4 -6 -4 -13 0 -17 3 -3 9 -1 13 5 4 6 16 13 27 16 16 4
14 5 -7 6 -15 0 -30 -4 -33 -10z"/>
<path d="M1743 2404 c-6 -15 29 -53 49 -54 12 0 -3 33 -24 53 -17 17 -19 17
-25 1z"/>
<path d="M2428 2380 c2 -16 7 -28 11 -25 11 6 6 48 -6 52 -5 2 -8 -9 -5 -27z"/>
<path d="M1910 2367 c-35 -16 -32 -28 15 -71 40 -35 65 -45 65 -25 0 5 14 15
30 20 17 6 30 17 30 25 0 8 5 14 10 14 6 0 10 6 10 14 0 20 -34 29 -82 21 -24
-4 -43 -3 -47 3 -4 7 -15 6 -31 -1z"/>
<path d="M1807 2335 c-17 -24 -17 -25 3 -25 15 0 20 6 20 25 0 30 -1 30 -23 0z"/>
<path d="M1682 2339 c2 -6 8 -10 13 -10 5 0 11 4 13 10 2 6 -4 11 -13 11 -9 0
-15 -5 -13 -11z"/>
<path d="M1390 2303 c0 -4 5 -15 10 -23 8 -13 10 -13 10 2 0 9 -4 20 -10 23
-5 3 -10 3 -10 -2z"/>
<path d="M2000 2259 c0 -5 5 -7 10 -4 6 3 10 8 10 11 0 2 -4 4 -10 4 -5 0 -10
-5 -10 -11z"/>
<path d="M2610 2120 c0 -5 5 -10 11 -10 5 0 7 5 4 10 -3 6 -8 10 -11 10 -2 0
-4 -4 -4 -10z"/>
<path d="M886 3883 c-6 -14 -5 -15 5 -6 7 7 10 15 7 18 -3 3 -9 -2 -12 -12z"/>
<path d="M3103 3293 c-15 -5 -18 -33 -4 -33 13 0 33 28 24 33 -4 2 -14 2 -20
0z"/>
<path d="M3175 3270 c-4 -6 -3 -16 3 -22 6 -6 12 -6 17 2 4 6 3 16 -3 22 -6 6
-12 6 -17 -2z"/>
<path d="M3100 3050 c-22 -18 -23 -22 -9 -33 8 -6 18 -20 22 -29 3 -10 13 -18
21 -18 10 0 13 6 9 17 -5 12 -2 15 10 10 26 -10 26 25 -1 51 -27 26 -21 26
-52 2z"/>
<path d="M3155 2942 c-11 -8 -18 -32 -10 -32 3 0 15 9 27 20 15 14 17 20 7 20
-8 0 -18 -4 -24 -8z"/>
<path d="M3075 2880 c-23 -10 -21 -11 18 -14 16 -1 27 3 27 11 0 15 -16 16
-45 3z"/>
<path d="M3010 2840 c0 -5 5 -10 11 -10 5 0 7 5 4 10 -3 6 -8 10 -11 10 -2 0
-4 -4 -4 -10z"/>
<path d="M3156 2753 c-4 -9 -3 -20 2 -25 6 -6 11 1 14 16 6 29 -6 35 -16 9z"/>
<path d="M2961 2564 c0 -11 3 -14 6 -6 3 7 2 16 -1 19 -3 4 -6 -2 -5 -13z"/>
<path d="M601 2880 c-16 -14 -21 -25 -16 -37 8 -17 8 -17 12 0 3 9 8 17 13 17
4 0 10 9 13 20 3 11 4 20 4 20 -1 -1 -13 -10 -26 -20z"/>
<path d="M3794 2958 c-4 -7 -4 -10 1 -6 4 4 14 3 22 -3 10 -9 13 -8 13 5 0 19
-26 22 -36 4z"/>
<path d="M2665 2640 c3 -5 8 -10 11 -10 2 0 4 5 4 10 0 6 -5 10 -11 10 -5 0
-7 -4 -4 -10z"/>
<path d="M690 2070 c0 -13 40 -53 47 -47 6 7 -19 46 -34 51 -7 3 -13 1 -13 -4z"/>
<path d="M676 2022 c-3 -5 1 -15 9 -22 16 -14 20 -3 6 19 -5 8 -11 9 -15 3z"/>
<path d="M732 1949 c-12 -18 -12 -23 0 -30 16 -11 20 -11 36 0 10 6 9 12 -5
30 l-18 22 -13 -22z"/>
<path d="M3338 1952 c9 -10 19 -17 21 -16 6 5 -20 34 -30 34 -5 0 -1 -8 9 -18z"/>
<path d="M2980 1950 c0 -5 -6 -10 -14 -10 -20 0 -27 -27 -9 -35 19 -7 28 1 38
33 4 13 2 22 -4 22 -6 0 -11 -4 -11 -10z"/>
<path d="M3160 1938 c1 -7 12 -26 26 -43 15 -16 23 -24 18 -16 -5 11 -3 13 9
8 25 -9 21 7 -9 37 -29 28 -44 33 -44 14z"/>
<path d="M3261 1932 c-13 -25 -14 -32 -2 -32 9 0 23 41 16 48 -2 2 -8 -5 -14
-16z"/>
<path d="M3378 1693 c7 -3 16 -2 19 1 4 3 -2 6 -13 5 -11 0 -14 -3 -6 -6z"/>
<path d="M3410 1660 c0 -5 7 -10 15 -10 8 0 15 5 15 10 0 6 -7 10 -15 10 -8 0
-15 -4 -15 -10z"/>
<path d="M3808 1638 c0 -7 -2 -17 -3 -23 -2 -5 -3 -17 -4 -26 0 -9 -13 -22
-27 -30 -29 -15 -46 -48 -34 -64 8 -10 10 -16 10 -33 0 -5 7 -9 15 -9 18 0 18
2 3 26 -6 10 -8 27 -4 37 7 19 8 19 18 0 8 -14 7 -21 -3 -27 -10 -6 -8 -9 8
-9 33 0 52 10 46 26 -3 8 0 14 7 14 6 0 8 5 4 12 -5 8 -11 6 -19 -5 -13 -18
-35 -23 -35 -9 0 13 30 36 64 51 20 8 26 15 18 20 -7 4 -10 15 -6 24 5 13 0
17 -21 17 -15 0 -24 4 -20 10 3 6 1 10 -4 10 -6 0 -12 -6 -13 -12z"/>
<path d="M3950 1569 c0 -5 5 -7 10 -4 6 3 10 8 10 11 0 2 -4 4 -10 4 -5 0 -10
-5 -10 -11z"/>
<path d="M3937 1523 c-11 -10 -8 -43 3 -43 6 0 10 11 10 25 0 26 -2 29 -13 18z"/>
<path d="M3590 1501 c-5 -11 -7 -27 -3 -37 6 -16 7 -16 20 2 15 21 17 54 3 54
-5 0 -14 -9 -20 -19z"/>
<path d="M4001 1444 c0 -11 3 -14 6 -6 3 7 2 16 -1 19 -3 4 -6 -2 -5 -13z"/>
<path d="M3690 1439 c0 -5 5 -7 10 -4 6 3 10 8 10 11 0 2 -4 4 -10 4 -5 0 -10
-5 -10 -11z"/>
<path d="M3561 1361 c-7 -5 -10 -14 -7 -20 4 -6 2 -11 -5 -11 -7 0 -9 -3 -6
-7 4 -3 16 2 27 12 31 28 24 47 -9 26z"/>
<path d="M3000 1180 c0 -5 10 -10 23 -10 18 0 19 2 7 10 -19 13 -30 13 -30 0z"/>
<path d="M3370 1180 c0 -5 4 -10 9 -10 6 0 13 5 16 10 3 6 -1 10 -9 10 -9 0
-16 -4 -16 -10z"/>
<path d="M2870 1170 c-9 -6 -10 -10 -3 -10 6 0 15 5 18 10 8 12 4 12 -15 0z"/>
<path d="M3238 1128 c12 -12 25 -18 29 -14 4 4 -1 14 -11 22 -31 22 -43 17
-18 -8z"/>
<path d="M3068 1123 c6 -2 18 -2 25 0 6 3 1 5 -13 5 -14 0 -19 -2 -12 -5z"/>
<path d="M3093 1107 c-32 -14 -29 -29 5 -21 34 8 38 12 26 23 -5 5 -19 4 -31
-2z"/>
<path d="M3140 1111 c0 -5 5 -13 10 -16 6 -3 10 -2 10 4 0 5 -4 13 -10 16 -5
3 -10 2 -10 -4z"/>
<path d="M3015 953 c-16 -8 -41 -25 -55 -38 -31 -27 -87 -55 -112 -55 -10 0
-18 -4 -18 -10 0 -5 -4 -10 -10 -10 -15 0 -7 24 10 33 13 6 -18 5 -132 -6 -15
-2 -29 2 -32 7 -2 8 -7 7 -16 0 -9 -9 -9 -17 1 -35 11 -22 11 -23 -5 -10 -9 8
-19 11 -23 7 -3 -3 -1 -6 5 -6 7 0 12 -6 12 -13 0 -9 17 -13 55 -13 30 -1 55
2 55 6 0 12 57 17 75 7 15 -8 15 -10 -2 -23 -12 -8 -13 -13 -5 -14 7 0 10 -5
7 -10 -8 -12 42 -33 57 -24 7 4 8 2 4 -4 -4 -7 0 -13 11 -13 50 -4 76 -9 168
-33 93 -24 128 -26 96 -7 -7 5 -11 13 -7 19 3 5 -1 13 -10 16 -22 9 -32 -3
-14 -14 13 -8 12 -10 -2 -10 -10 0 -18 5 -18 10 0 6 -16 10 -35 10 -26 0 -43
7 -60 26 -16 17 -38 28 -67 31 -24 3 -51 10 -61 15 -18 9 -18 11 3 33 16 17
18 24 8 28 -9 4 -8 6 3 6 9 1 43 14 75 31 32 16 65 30 71 30 15 0 53 31 53 42
0 14 -54 8 -85 -9z"/>
<path d="M2630 911 c0 -5 5 -13 10 -16 6 -3 10 -2 10 4 0 5 -4 13 -10 16 -5 3
-10 2 -10 -4z"/>
<path d="M3050 879 c-41 -21 -31 -24 23 -6 20 8 34 17 30 20 -8 9 -12 8 -53
-14z"/>
<path d="M2510 881 c0 -4 -13 -6 -29 -3 -19 3 -30 -1 -34 -12 -4 -10 -1 -16 8
-16 8 0 15 6 15 13 0 6 6 3 12 -7 9 -17 12 -17 22 -4 6 8 18 17 25 20 12 3 12
6 -2 11 -9 3 -17 3 -17 -2z"/>
<path d="M2955 860 c-3 -6 1 -7 9 -4 18 7 21 14 7 14 -6 0 -13 -4 -16 -10z"/>
<path d="M2535 850 c-3 -5 -2 -10 4 -10 5 0 13 5 16 10 3 6 2 10 -4 10 -5 0
-13 -4 -16 -10z"/>
<path d="M2973 820 c-42 -19 -42 -30 0 -29 37 1 85 17 54 18 -10 1 -16 5 -12
10 10 17 -9 17 -42 1z"/>
<path d="M2110 789 c0 -5 5 -7 10 -4 6 3 10 8 10 11 0 2 -4 4 -10 4 -5 0 -10
-5 -10 -11z"/>
<path d="M2705 770 c4 -6 10 -8 15 -5 5 3 11 1 15 -5 4 -6 10 -8 15 -5 5 3 11
1 15 -5 3 -5 13 -10 22 -10 12 0 13 3 4 13 -6 8 -8 17 -4 20 3 4 -15 7 -41 7
-29 0 -45 -4 -41 -10z"/>
<path d="M2625 700 c-3 -5 3 -10 15 -10 12 0 18 5 15 10 -3 6 -10 10 -15 10
-5 0 -12 -4 -15 -10z"/>
<path d="M2508 623 c7 -3 16 -2 19 1 4 3 -2 6 -13 5 -11 0 -14 -3 -6 -6z"/>
<path d="M1420 1589 c0 -5 5 -7 10 -4 6 3 10 8 10 11 0 2 -4 4 -10 4 -5 0 -10
-5 -10 -11z"/>
<path d="M1570 1579 c0 -5 5 -7 10 -4 6 3 10 8 10 11 0 2 -4 4 -10 4 -5 0 -10
-5 -10 -11z"/>
<path d="M1860 1455 c-8 -9 -8 -15 -2 -15 12 0 26 19 19 26 -2 2 -10 -2 -17
-11z"/>
<path d="M2600 1476 c0 -2 7 -9 15 -16 12 -10 15 -10 15 4 0 9 -7 16 -15 16
-8 0 -15 -2 -15 -4z"/>
<path d="M2577 1453 c-12 -12 -7 -33 8 -33 17 0 19 9 7 28 -5 7 -11 9 -15 5z"/>
<path d="M2770 1400 c-13 -8 -13 -10 2 -10 9 0 20 5 23 10 8 13 -5 13 -25 0z"/>
<path d="M2995 1390 c-3 -5 -1 -10 4 -10 6 0 11 5 11 10 0 6 -2 10 -4 10 -3 0
-8 -4 -11 -10z"/>
<path d="M3295 1429 c-11 -17 1 -21 15 -4 8 9 8 15 2 15 -6 0 -14 -5 -17 -11z"/>
<path d="M2686 1145 c4 -8 8 -15 10 -15 2 0 4 7 4 15 0 8 -4 15 -10 15 -5 0
-7 -7 -4 -15z"/>
<path d="M2518 1053 c6 -2 18 -2 25 0 6 3 1 5 -13 5 -14 0 -19 -2 -12 -5z"/>
</g>
</svg>
